<?xml version="1.0" standalone="no"?>
<!DOCTYPE svg PUBLIC "-//W3C//DTD SVG 1.1//EN" "http://www.w3.org/Graphics/SVG/1.1/DTD/svg11.dtd" >
<svg>
<metadata>
Created by FontForge 20090622 at Thu May 16 17:49:14 2019
 By deploy user
Copyright (c) 2018 by Igor Kosinsky. All rights reserved.
</metadata>
<defs>
<font id="LIBRARY3AM" horiz-adv-x="1566" >
  <font-face 
    font-family="LIBRARY 3 AM"
    font-weight="400"
    font-stretch="normal"
    units-per-em="2000"
    panose-1="2 0 5 3 2 0 0 2 0 4"
    ascent="1600"
    descent="-400"
    x-height="1498"
    cap-height="1498"
    bbox="-59 -430 2423 1991"
    underline-thickness="50"
    underline-position="-50"
    unicode-range="U+0020-U+2212"
  />
<missing-glyph horiz-adv-x="1538" 
d="M200 1498h1138v-1498h-1138v1498zM410 84v114h-126v-114h126zM410 282v934h-126v-934h126zM410 1300v114h-126v-114h126zM1044 84v114h-550v-114h550zM1044 282v934h-550v-934h550zM1044 1300v114h-550v-114h550zM1254 84v114h-126v-114h126zM1254 282v934h-126v-934h126
zM1254 1300v114h-126v-114h126z" />
    <glyph glyph-name=".notdef" horiz-adv-x="1538" 
d="M200 1498h1138v-1498h-1138v1498zM410 84v114h-126v-114h126zM410 282v934h-126v-934h126zM410 1300v114h-126v-114h126zM1044 84v114h-550v-114h550zM1044 282v934h-550v-934h550zM1044 1300v114h-550v-114h550zM1254 84v114h-126v-114h126zM1254 282v934h-126v-934h126
zM1254 1300v114h-126v-114h126z" />
    <glyph glyph-name=".null" horiz-adv-x="0" 
 />
    <glyph glyph-name="nonmarkingreturn" horiz-adv-x="666" 
 />
    <glyph glyph-name="space" unicode=" " horiz-adv-x="798" 
 />
    <glyph glyph-name="exclam" unicode="!" horiz-adv-x="737" 
d="M200 1498h337v-480l-34 -601h-84l34 604v393h-169v-393l34 -604h-84l-34 601v480zM369 293q68 0 116.5 -48.5t48.5 -117.5q0 -48 -25.5 -87.5t-67.5 -60.5l-37 75q46 22 46 73q0 34 -23.5 58t-57.5 24t-58 -24t-24 -58q0 -51 46 -73l-38 -75q-41 21 -66.5 60.5
t-25.5 87.5q0 69 48.5 117.5t117.5 48.5z" />
    <glyph glyph-name="quotedbl" unicode="&#x22;" horiz-adv-x="769" 
d="M238 1141l29 379h84l-35 -463h-216l-34 463h84l28 -379h60zM620 1520h84l-35 -463h-216l-34 463h84l28 -379h60z" />
    <glyph glyph-name="numbersign" unicode="#" horiz-adv-x="1803" 
d="M1621 854h-286l-64 -210h286l-82 -271h-286l-113 -373h-291l113 373h-221l-113 -373h-291l113 373h-286l82 271h171l-25 -84h-84l-31 -103h286l-113 -373h116l113 373h396l-113 -373h116l113 373h286l31 103h-286l114 378h287l31 103h-286l113 373h-116l-113 -373h-397
l113 373h-115l-113 -373h-286l-31 -103h286l-89 -294h424l64 210h-221l-33 -107h-88l58 191h397l-114 -378h-600l89 294h-286l82 271h286l113 373h290l-113 -373h222l113 373h291l-113 -373h286z" />
    <glyph glyph-name="dollar" unicode="$" horiz-adv-x="1308" 
d="M755 974q201 -82 302 -215t101 -339q0 -171 -99.5 -280t-271.5 -145v-263h-294v252q-200 23 -403 133l101 271q240 -128 420 -128q253 0 253 160q0 28 -4 53.5t-9.5 45.5t-17.5 40l-20.5 33.5t-27.5 29.5l-29.5 24.5t-34.5 23l-35.5 21l-39.5 21.5l-39 21
q-47 25 -75 42.5t-65 48.5t-57 62.5t-35 79t-15 104.5q0 26 4 51.5t22.5 64t49.5 66.5t91.5 48.5t141.5 20.5q143 0 300 -66l42 114q-136 61 -308 65v247h-126v-253q-46 -6 -89 -18.5t-91 -39.5t-82.5 -65t-57.5 -99t-23 -137q0 -288 275 -414l-29 -79q-161 72 -245.5 196.5
t-84.5 296.5q0 171 93 280.5t250 148.5v267h294v-252q96 -9 169 -33t160 -68l-100 -271q-190 96 -347 96q-225 0 -225 -167q0 -37 7 -68t23 -56.5t31 -43t44 -37t46.5 -30t53.5 -29.5q116 -62 154 -91q125 -92 142 -240q3 -26 3 -55q0 -26 -5 -50t-17 -53.5t-37 -53
t-60.5 -44t-91.5 -32t-126 -11.5q-166 0 -374 95l-42 -113q185 -89 382 -95v-247h126v251q154 17 249 89q122 92 122 264q0 173 -83.5 286.5t-263.5 188.5z" />
    <glyph glyph-name="percent" unicode="%" horiz-adv-x="2328" 
d="M1393 1498h313l-771 -1498h-95l728 1414h-124l-727 -1414h-94zM1006 1103q0 -189 -116 -303.5t-300 -114.5q-28 0 -42 2v188q-83 13 -131.5 74t-48.5 154q0 105 60.5 167.5t161.5 62.5t162 -62.5t61 -167.5q0 -136 -96 -197v126q12 30 12 71q0 70 -35.5 108t-103.5 38
q-67 0 -102.5 -38t-35.5 -108t35.5 -108.5t102.5 -38.5q22 0 42 5v-190q134 13 212 102t78 230q0 152 -90.5 242.5t-241.5 90.5t-241 -90.5t-90 -242.5q0 -117 54 -199t151 -115v-88q-133 36 -211 142t-78 260q0 189 116 303t299 114q184 0 300 -114t116 -303zM1738 815
q183 0 299 -114.5t116 -303.5t-116 -303.5t-299 -114.5q-16 0 -42 2v188q-83 13 -131.5 74t-48.5 154q0 105 60.5 168t161.5 63t161.5 -63t60.5 -168q0 -135 -96 -196v126q12 30 12 70q0 70 -35.5 108.5t-102.5 38.5t-102.5 -38.5t-35.5 -108.5t35.5 -108.5t102.5 -38.5
q25 0 42 4v-189q133 13 211 102t78 230q0 152 -90 243t-241 91t-241.5 -91t-90.5 -243q0 -116 54.5 -198t151.5 -115v-88q-133 36 -211.5 142t-78.5 259q0 189 116 303.5t300 114.5z" />
    <glyph glyph-name="ampersand" unicode="&#x26;" horiz-adv-x="1523" 
d="M577 607q-53 -32 -93 -87.5t-40 -114.5q0 -68 57 -106t137 -38q41 0 72 4l207 -235q-118 -51 -293 -51q-200 0 -337 119.5t-137 306.5q0 69 18.5 132t53.5 115.5t73.5 93.5t88.5 82q-158 173 -158 314q0 117 59 204t155 130.5t214 43.5q172 0 291.5 -102t119.5 -261
q0 -170 -151 -306l-53 63q24 24 37 39.5t36 49t35 72.5t12 82q0 120 -92 199q-96 80 -235 80q-90 0 -165.5 -30t-127 -98.5t-51.5 -165.5q0 -108 136 -257l60 -65l-68 -56q-101 -82 -152.5 -168t-51.5 -191q0 -149 110.5 -245.5t279.5 -96.5q83 0 142 11l-91 103h-37
q-121 0 -199.5 64.5t-78.5 163.5q0 82 51 156.5t122 117.5l59 39l556 -634h156l-175 199l36 54q44 65 80 172.5t48 219.5h-123q-6 -165 -61 -257l-60 -99l-480 556q-78 91 -107 134t-29 79q0 72 53.5 126t164.5 54q105 0 156.5 -54t51.5 -125q0 -44 -26 -80.5t-52 -55.5
l-53 62q47 47 47 74q0 43 -31 69t-93 26q-67 0 -100.5 -26.5t-33.5 -69.5q0 -25 107 -148q6 -7 9 -10l404 -468q24 40 35.5 98t13 94t1.5 105h294q0 -141 -43 -287t-103 -236l254 -290h-379z" />
    <glyph glyph-name="quotesingle" unicode="'" horiz-adv-x="416" 
d="M238 1141l28 379h84l-34 -463h-216l-34 463h84l28 -379h60z" />
    <glyph glyph-name="parenleft" unicode="(" horiz-adv-x="931" 
d="M781 1414q-61 0 -119 -44.5t-105 -125.5t-76 -210t-29 -284q0 -8 0.5 -22t0.5 -20h-195q4 -179 42 -325t100 -242t137.5 -154.5t159.5 -78.5v107q-121 42 -210.5 195t-111.5 395h84q24 -242 117 -381t205 -139v-271q-87 0 -171.5 33.5t-164 107.5t-139.5 180.5t-96 265.5
t-36 349q0 7 0.5 21t0.5 21h194q7 284 100 464.5t228 227.5v107q-78 -19 -148.5 -70.5t-130 -135t-100.5 -210t-54 -280.5h-84q13 160 54.5 293.5t101 224t134 153t153 91t158.5 28.5v-271z" />
    <glyph glyph-name="parenright" unicode=")" horiz-adv-x="932" 
d="M150 1414v271q80 0 158.5 -28.5t153 -91t134 -153t101 -224t54.5 -293.5h-84q-13 154 -54 280.5t-100.5 210t-130 135t-148.5 70.5v-107q135 -47 228 -227.5t100 -464.5h194q0 -7 0.5 -21t0.5 -21q0 -190 -36 -349t-96 -265.5t-139.5 -180.5t-164 -107.5t-171.5 -33.5
v271q112 0 205 139t117 381h84q-22 -242 -111.5 -395t-210.5 -195v-107q84 20 159.5 78.5t137.5 154.5t100 242t42 325h-195q0 6 0.5 20t0.5 22q0 155 -29 284t-76 210t-105 125.5t-119 44.5z" />
    <glyph glyph-name="asterisk" unicode="*" horiz-adv-x="1026" 
d="M951 1234l-188 -121l188 -121l-147 -228l-156 101v-159h-84v313l215 -139l56 87l-227 146l227 146l-56 87l-215 -139v229h-103v-229l-215 139l-55 -87l226 -146l-226 -146l55 -87l215 139v-313h-84v159l-156 -101l-146 228l187 121l-187 121l146 228l156 -101v159h271
v-159l156 101z" />
    <glyph glyph-name="plus" unicode="+" horiz-adv-x="1281" 
d="M776 885h355v-271h-355v-355h-84v439h355v103h-355v355h-103v-355h-355v-103h355v-439h-84v355h-355v271h355v355h271v-355z" />
    <glyph glyph-name="comma" unicode="," horiz-adv-x="531" 
d="M265 293q70 0 118 -47.5t48 -118.5q0 -18 -13.5 -56t-41 -96.5l-48 -101l-56.5 -113.5l-46 -91h-96q55 100 136 268t81 191q0 34 -24 57.5t-58 23.5t-57.5 -23.5t-23.5 -57.5q0 -51 45 -73l-37 -76q-41 21 -66.5 60.5t-25.5 88.5q0 68 48.5 116.5t116.5 48.5z" />
    <glyph glyph-name="hyphen" unicode="-" horiz-adv-x="1098" 
d="M150 801v84h798v-271h-798v84h714v103h-714z" />
    <glyph glyph-name="period" unicode="." horiz-adv-x="531" 
d="M266 293q68 0 116.5 -48.5t48.5 -117.5q0 -48 -25.5 -87.5t-67.5 -60.5l-37 75q46 22 46 73q0 34 -23.5 58t-57.5 24t-58 -24t-24 -58q0 -49 46 -73l-38 -75q-41 21 -66.5 60.5t-25.5 87.5q0 69 48.5 117.5t117.5 48.5z" />
    <glyph glyph-name="slash" unicode="/" horiz-adv-x="1276" 
d="M964 1685h313l-963 -1872h-95l920 1788h-124l-920 -1788h-95z" />
    <glyph glyph-name="zero" unicode="0" horiz-adv-x="1476" 
d="M738 1238q-68 0 -121.5 -34t-85 -85.5t-52 -119.5t-28 -129t-7.5 -121q0 -49 5.5 -99.5t17.5 -107.5t35 -105.5t54 -89t78 -63.5t104 -23t104 23t78 63.5t54 89t35 105.5t17.5 107.5t5.5 99.5q0 27 -1 42h210q-3 94 -22 183t-58.5 174t-95.5 148t-140.5 101.5
t-186.5 38.5q-107 0 -194 -42t-143.5 -110t-95 -159t-55 -184.5t-16.5 -191.5t16.5 -192t55 -184.5t95 -158.5t143.5 -109.5t194 -41.5q111 0 200.5 44t148 120.5t94 168t50.5 197.5h85q-17 -130 -61.5 -239.5t-115.5 -194t-174 -132.5t-227 -48q-115 0 -211.5 41t-165 113
t-117 169.5t-71.5 210.5t-23 236t23 235.5t71.5 210.5t117 170t165 113.5t211.5 41.5t211.5 -41t165 -113.5t117 -170t71.5 -210.5t23 -236q0 -28 -1 -42h-210q-4 -101 -27 -191t-66 -168.5t-116 -124.5t-168 -46q-81 0 -146.5 34.5t-107.5 90.5t-71 131.5t-41 154
t-12 161.5t12 161.5t41 154t71 132t107.5 91t146.5 34.5t146.5 -34t109 -94t70.5 -132t40 -157h-85q-11 66 -31.5 121.5t-52.5 105t-82.5 78t-114.5 28.5z" />
    <glyph glyph-name="one" unicode="1" horiz-adv-x="986" 
d="M761 1428l-502 -224v-122l502 226v-1308h-294v963l84 37v-916h126v1094l-502 -226v306l586 262v-92z" />
    <glyph glyph-name="two" unicode="2" horiz-adv-x="1225" 
d="M707 282h368v-282h-925l614 643q201 210 201 409q0 93 -35.5 168.5t-93 121t-125 70t-136.5 24.5q-202 0 -322 -126l88 -72q90 84 224 84q102 0 172.5 -52t92.5 -145q9 -36 9 -84q0 -46 -14.5 -91t-43.5 -87.5t-52.5 -70.5t-60.5 -68l-518 -546v122l442 466
q40 42 58.5 63t48.5 61t43 76.5t13 74.5q0 32 -7 65q-16 66 -64.5 99t-118.5 33q-141 0 -212 -118l-218 178q151 222 440 222q69 0 136.5 -19t128.5 -58.5t107.5 -94t74 -131.5t27.5 -165q0 -232 -223 -466l-480 -502h645v114h-364z" />
    <glyph glyph-name="three" unicode="3" horiz-adv-x="1321" 
d="M951 861q102 -65 161 -166.5t59 -234.5q0 -214 -149.5 -347.5t-400.5 -133.5q-298 0 -531 157l137 251q204 -126 377 -126q75 0 134.5 18.5t99 64.5t39.5 115q0 111 -88.5 169t-222.5 62l455 610v114h-726v-114h572l-378 -513l-45 81l257 348h-490v282h894v-226
l-388 -520q115 -33 179.5 -110t64.5 -183q0 -129 -95.5 -205.5t-261.5 -76.5t-344 95l-58 -106q182 -103 419 -103q95 0 178 24.5t148 72t102.5 125t37.5 175.5q0 218 -187 334z" />
    <glyph glyph-name="four" unicode="4" horiz-adv-x="1355" 
d="M1065 540h190v-282h-190v-258h-294v258h-541l605 1156h-138l-501 -958h-95l545 1042h328l-605 -1156h486v-258h126v258h190v114h-190v272h-126v-272h-288l44 84h160v272h294v-272z" />
    <glyph glyph-name="five" unicode="5" horiz-adv-x="1308" 
d="M671 968q90 0 177 -34t156 -94t111.5 -151.5t42.5 -198.5q0 -100 -29.5 -184.5t-81 -143.5t-120.5 -101t-147.5 -62t-162.5 -20q-148 0 -281 43t-236 115l138 251q194 -127 372 -127q111 0 182.5 57t71.5 172q0 93 -68.5 144.5t-183.5 51.5q-112 0 -210 -63l74 677h523
v114h-634l-76 -710l-78 59l78 735h794v-282h-532l-50 -459q46 13 111 13q153 0 244.5 -76t91.5 -204q0 -142 -92 -227.5t-246 -85.5q-164 0 -340 94l-58 -105q183 -103 405 -103q88 0 168 26t145.5 76t104.5 134t39 191q0 90 -35.5 166t-93.5 125t-129.5 76t-144.5 27
q-20 0 -35 -3l10 86q8 1 25 1z" />
    <glyph glyph-name="six" unicode="6" horiz-adv-x="1365" 
d="M851 967q168 -59 266.5 -182.5t98.5 -294.5q0 -231 -140.5 -371t-387.5 -140q-249 0 -393.5 140t-144.5 371q0 138 86 270l477 738h347l-451 -694q82 0 152 -18.5t125.5 -56t87.5 -101t32 -148.5q0 -143 -89 -223t-235 -80q-144 0 -233 83.5t-89 219.5q0 69 26 127h95
q-37 -55 -37 -127q0 -103 65.5 -161t172.5 -58q111 0 175.5 55.5t64.5 163.5q0 207 -244 236q-37 4 -82 4h-142l451 694h-146l-453 -700q-72 -112 -72 -224q0 -196 119.5 -311.5t334.5 -115.5q214 0 329 115.5t115 311.5q0 79 -26.5 146t-64.5 109.5t-86.5 76t-84 48.5
t-66.5 23z" />
    <glyph glyph-name="seven" unicode="7" horiz-adv-x="1117" 
d="M976 1300h91l-536 -1300h-315l585 1414h-592v-114h414l-35 -84h-463v282h802l-585 -1414h133z" />
    <glyph glyph-name="eight" unicode="8" horiz-adv-x="1344" 
d="M880 923q68 -41 119 -83.5t98 -100.5t72 -133.5t25 -164.5q0 -207 -136.5 -334.5t-385.5 -127.5q-124 0 -224.5 37t-164.5 101t-98.5 147t-34.5 177q0 203 141 344q-95 117 -95 298q0 104 38.5 188.5t105 138t151.5 82t181 28.5q95 0 180.5 -29t151.5 -83t105 -137.5
t39 -185.5q0 -81 -37 -181q-31 27 -71 53q24 68 24 128q0 87 -33.5 156t-90 110.5t-125 63t-143.5 21.5q-76 0 -144 -21t-124.5 -62.5t-90 -111t-33.5 -158.5q0 -73 22 -138t45.5 -99t58.5 -73q-35 -27 -61.5 -53.5t-54 -66.5t-42 -94t-14.5 -118q0 -169 118.5 -273.5
t319.5 -104.5q205 0 321.5 99.5t116.5 278.5q0 74 -20 136t-61 112t-88 88.5t-114 80.5q-39 24 -77 43q60 61 79 93q25 43 25 87q0 75 -48 116t-134 41t-134 -41.5t-48 -115.5q0 -51 15.5 -92.5t48.5 -76.5t66.5 -59.5t86.5 -56.5l51.5 -31.5t51 -34.5t54 -42t46 -47.5
t40 -57t24 -64t10.5 -75.5q0 -133 -83.5 -200t-228.5 -67q-140 0 -226 72t-86 195q0 142 141 250l74 -50q-131 -91 -131 -200q0 -88 61.5 -135.5t166.5 -47.5q109 0 168.5 42.5t59.5 140.5q0 38 -13.5 72.5t-32 60t-54.5 54.5t-65.5 48.5t-79.5 49.5q-132 79 -190.5 162
t-58.5 190q0 110 72.5 175.5t193.5 65.5q122 0 194 -65t72 -176q0 -86 -58 -158z" />
    <glyph glyph-name="nine" unicode="9" horiz-adv-x="1365" 
d="M568 606l-48 -74q-168 59 -266.5 182t-98.5 295q0 229 140.5 370t387.5 141q248 0 393 -141t145 -370q0 -138 -86 -270l-477 -739h-347l451 695q-82 0 -151.5 18.5t-125.5 56t-88 101.5t-32 148q0 143 89 223t235 80q145 0 233.5 -83.5t88.5 -219.5q0 -68 -25 -127h-96
q37 52 37 127q0 103 -65 161t-173 58q-110 0 -175 -56t-65 -163q0 -240 327 -240h141l-451 -695h146l453 701q72 110 72 224q0 195 -119.5 311t-334.5 116q-213 0 -328.5 -116.5t-115.5 -310.5q0 -79 26.5 -147t64.5 -110t86.5 -75t84.5 -48t67 -23z" />
    <glyph glyph-name="colon" unicode=":" horiz-adv-x="531" 
d="M266 1205q68 0 116.5 -48.5t48.5 -117.5q0 -48 -25.5 -87.5t-67.5 -60.5l-37 75q46 22 46 73q0 34 -23.5 58t-57.5 24t-58 -24t-24 -58q0 -49 46 -73l-38 -75q-41 21 -66.5 60.5t-25.5 87.5q0 69 48.5 117.5t117.5 48.5zM266 293q68 0 116.5 -49t48.5 -117
q0 -48 -25.5 -88t-67.5 -61l-37 76q46 22 46 73q0 34 -23.5 58t-57.5 24t-58 -24t-24 -58q0 -51 46 -73l-38 -75q-41 21 -66.5 60.5t-25.5 87.5q0 68 48.5 117t117.5 49z" />
    <glyph glyph-name="semicolon" unicode=";" horiz-adv-x="531" 
d="M265 293q70 0 118 -47.5t48 -118.5q0 -18 -13.5 -56t-41 -96.5l-48 -101l-56.5 -113.5l-46 -91h-96q55 100 136 268t81 191q0 34 -24 57.5t-58 23.5t-57.5 -23.5t-23.5 -57.5q0 -51 45 -73l-37 -76q-41 21 -66.5 60.5t-25.5 88.5q0 68 48.5 116.5t116.5 48.5zM266 1205
q68 0 116.5 -48.5t48.5 -117.5q0 -48 -25.5 -87.5t-67.5 -60.5l-37 75q46 22 46 73q0 34 -23.5 58t-57.5 24t-58 -24t-24 -58q0 -49 46 -73l-38 -75q-41 21 -66.5 60.5t-25.5 87.5q0 69 48.5 117.5t117.5 48.5z" />
    <glyph glyph-name="less" unicode="&#x3c;" horiz-adv-x="992" 
d="M427 860l331 213v123l-522 -336l606 -389v-323l-692 446v100l608 -392v123l-608 391v89l692 445v-323l-338 -217z" />
    <glyph glyph-name="equal" unicode="=" horiz-adv-x="1265" 
d="M150 1113h965v-271h-965v84h881v103h-881v84zM150 385v271h965v-84h-881v-103h881v-84h-965z" />
    <glyph glyph-name="greater" unicode="&#x3e;" horiz-adv-x="992" 
d="M234 1073l331 -213l-77 -50l-338 217v323l692 -445v-89l-608 -391v-123l608 392v-100l-692 -446v323l606 389l-522 336v-123z" />
    <glyph glyph-name="question" unicode="?" horiz-adv-x="1178" 
d="M546 293q69 0 117.5 -48.5t48.5 -117.5q0 -48 -25.5 -87.5t-67.5 -60.5l-37 75q46 22 46 73q0 34 -24 58t-58 24t-57.5 -24t-23.5 -58q0 -50 45 -73l-37 -75q-42 21 -67 60.5t-25 87.5q0 69 48.5 117.5t116.5 48.5zM532 1520q230 0 363 -124.5t133 -316.5q0 -35 -6 -68.5
t-13.5 -59t-25 -56t-28.5 -48t-36.5 -47l-36.5 -41.5t-41.5 -42.5t-39.5 -40.5q-39 -41 -58.5 -66t-34.5 -70t-15 -105v-17h-84v17q0 61 10 106t36.5 87t50 68.5t73.5 76.5q42 43 65.5 70t50 66t38 80.5t11.5 89.5q0 163 -112 260t-300 97q-169 0 -317 -115l70 -90
q123 91 250 91q125 0 204 -66.5t79 -172.5q0 -34 -8.5 -64.5t-32 -64t-35 -48.5t-49.5 -54.5l-44 -45.5l-62 -69t-44.5 -58.5t-35 -67t-17 -75.5t-7.5 -102v-16h-84v16q0 65 9 118t21.5 90t40.5 78.5t50.5 68t67.5 74.5l41 43.5t42.5 46t30 39t25.5 47t7 44.5
q0 68 -53.5 111.5t-145.5 43.5q-64 0 -125.5 -29t-137.5 -98l-172 221q196 188 432 188z" />
    <glyph glyph-name="at" unicode="@" horiz-adv-x="1879" 
d="M970 1589q211 0 383 -87.5t274 -252.5t102 -377q0 -268 -39 -420q-49 -192 -177 -249q-53 -25 -110 -25h-29h-32h-26v937q-40 28 -65.5 43.5t-73 40t-100.5 36t-111 11.5q-222 0 -347.5 -136.5t-125.5 -360.5q0 -80 14 -151.5t45.5 -135t77.5 -109.5t114.5 -72.5
t152.5 -26.5q126 0 230 34v730q-84 48 -151 48q-138 0 -216 -82.5t-78 -234.5q0 -153 58.5 -234.5t166.5 -81.5q58 0 114 16v-87q-52 -13 -114 -13q-145 0 -227 106t-82 294q0 185 101.5 293t276.5 108q22 0 45 -4t43.5 -10t39 -13.5t34 -15t26.5 -13.5t19 -11l8 -5l20 -13
v-833q-126 -62 -314 -62q-222 0 -355 155.5t-133 423.5q0 264 153 422.5t404 158.5q71 0 137.5 -16t123.5 -46t93 -54t80 -58v-894q45 0 81.5 18.5t62 50t44 79t29.5 97t17.5 114t8.5 121.5t2 126q0 191 -90.5 337.5t-243 223t-341.5 76.5q-162 0 -300.5 -60.5
t-233.5 -165.5t-148.5 -248.5t-53.5 -306.5q0 -162 54.5 -299t150 -231t229 -147t289.5 -53q95 0 191 21t165 52l35 -76q-175 -81 -392 -81q-175 0 -325 60.5t-255.5 167.5t-165.5 258.5t-60 327.5q0 241 102 438t290.5 312t427.5 115z" />
    <glyph glyph-name="A" unicode="A" horiz-adv-x="1484" 
d="M889 1498l545 -1498h-307l-135 373h-717l-105 -289h127l64 175h89l-94 -259h-306l166 457h835l135 -373h128l-484 1330h-176l-276 -759h512l-148 407l-107 -293h-89l196 539l268 -737h-752l337 927h294z" />
    <glyph glyph-name="B" unicode="B" horiz-adv-x="1416" 
d="M1108 820q173 -127 173 -372q0 -191 -135.5 -319.5t-358.5 -128.5h-587v731h567q138 0 221 -76.5t83 -194.5q0 -110 -72 -186t-208 -76h-381v335h84v-251h297q99 0 147.5 50t48.5 128q0 79 -56.5 133t-163.5 54h-483v-563h503q191 0 300.5 105.5t109.5 258.5
q0 258 -227 355q40 32 68.5 64t53.5 96t25 143q0 125 -104 216.5t-276 91.5h-453v-486h452q175 0 175 160q0 62 -51.5 95t-138.5 33h-227v-174h-84v258h311q72 0 127 -18.5t86 -50t46 -67.5t15 -76q0 -117 -70.5 -180.5t-196.5 -63.5h-528v654h537q105 0 194 -33t147 -88
t90.5 -125.5t32.5 -145.5q0 -171 -93 -286z" />
    <glyph glyph-name="C" unicode="C" horiz-adv-x="1337" 
d="M1128 385l134 -257q-224 -149 -481 -149q-122 0 -227.5 38.5t-183.5 108t-133.5 164t-83.5 208t-28 238.5v28q0 22 2 62h211q10 129 61.5 240t148.5 183.5t221 72.5q89 0 154.5 -20t131.5 -61l58 104q-150 91 -350 91q-109 0 -201.5 -39.5t-158.5 -108.5t-110.5 -157.5
t-65.5 -190.5h-86q23 119 74 222.5t128 184t185 127t235 46.5q140 0 250 -36.5t211 -112.5l-140 -251q-91 65 -154 91.5t-161 26.5q-81 0 -148.5 -41t-111 -108.5t-67 -151.5t-23.5 -173v-22h-210v-6q0 -134 36.5 -253.5t105.5 -214t180 -150t250 -55.5q196 0 370 96
l-56 107q-156 -89 -306 -89q-99 0 -180 36.5t-134.5 100.5t-87 143.5t-45.5 171.5h85q11 -75 37.5 -139t69.5 -116.5t108.5 -82.5t146.5 -30q89 0 169.5 32.5t169.5 91.5z" />
    <glyph glyph-name="D" unicode="D" horiz-adv-x="1467" 
d="M672 1498q307 0 488.5 -196.5t181.5 -551.5q0 -223 -85 -393.5t-240.5 -263.5t-358.5 -93h-458v1300h473q215 0 337 -145.5t122 -404.5q0 -248 -127 -400t-333 -152h-262v905h84v-821h178q171 0 273.5 128.5t102.5 339.5q0 225 -98 345.5t-278 120.5h-388v-1132h374
q274 0 437 181.5t163 484.5q0 145 -35.5 264t-105.5 209.5t-183.5 140.5t-261.5 50h-472v84h472z" />
    <glyph glyph-name="E" unicode="E" horiz-adv-x="1277" 
d="M494 282h633v-282h-927v1498h913v-282h-619v-175h-84v259h619v114h-745v-1330h759v114h-633v729h680v-282h-470v84h386v114h-512v-561z" />
    <glyph glyph-name="F" unicode="F" horiz-adv-x="1196" 
d="M410 1300h577v114h-703v-487h658v-282h-658v-561h126v448h84v-532h-294v729h658v114h-658v655h871v-282h-577v-175h-84v259z" />
    <glyph glyph-name="G" unicode="G" horiz-adv-x="1443" 
d="M1293 741h-469v-114h469v-488q-226 -160 -510 -160q-156 0 -282.5 61t-207.5 167t-124.5 245t-43.5 298v14q0 145 44 280t124 241.5t204.5 170.5t273.5 64q140 0 250 -36.5t211 -112.5l-139 -251q-91 65 -154.5 91.5t-161.5 26.5q-87 0 -157.5 -44t-113 -114t-65 -152
t-22.5 -164v-14q0 -70 11.5 -137t39 -131.5t68 -113t103 -78t139.5 -29.5q129 0 219 40v129h84v-183l-43 -20q-109 -50 -260 -50q-89 0 -163 32t-125.5 86.5t-87.5 128t-52.5 156t-16.5 170.5v14q0 104 29.5 202.5t84 178.5t140 128.5t188.5 48.5q89 0 154.5 -20t132.5 -61
l58 104q-152 91 -351 91q-107 0 -199 -38t-157.5 -103t-112.5 -151t-70 -183t-23 -197v-14q0 -136 35.5 -257.5t103.5 -218.5t180.5 -154t254.5 -57q234 0 426 121v359h-469v282h553v-84z" />
    <glyph glyph-name="H" unicode="H" horiz-adv-x="1539" 
d="M1045 1498h294v-1498h-294v646h-761v-562h126v448h84v-532h-294v730h929v-646h126v1330h-126v-570h-929v654h294v-456h-84v372h-126v-486h761v570z" />
    <glyph glyph-name="I" unicode="I" horiz-adv-x="744" 
d="M519 1216h-210v-1132h126v1018h84v-1102h-294v1300h210v114h-210v84h294v-282z" />
    <glyph glyph-name="J" unicode="J" horiz-adv-x="1132" 
d="M346 1414v-114h586v-827q0 -220 -108.5 -357t-309.5 -137q-146 0 -250 38.5t-189 111.5l135 250q155 -118 278 -118q78 0 114 50.5t36 159.5v631h84v-631q0 -87 -21 -148t-57 -91t-74 -42.5t-82 -12.5q-115 0 -248 80l-57 -105q132 -89 331 -89q88 0 154 33t104.5 91
t57 129.5t18.5 156.5v743h-586v282h670v-84h-586z" />
    <glyph glyph-name="K" unicode="K" horiz-adv-x="1450" 
d="M731 780l671 -780h-381l-401 468v130l439 -514h160l-599 696l546 634h-156l-516 -602v-812h-294v1498h294v-378l-84 -98v392h-126v-1330h126v759l562 655h377z" />
    <glyph glyph-name="L" unicode="L" horiz-adv-x="1103" 
d="M284 282h744v-282h-828v84h744v114h-744v1300h294v-1102h-84v1018h-126v-1132z" />
    <glyph glyph-name="M" unicode="M" horiz-adv-x="1866" 
d="M1368 1498h298v-1498h-294v916l-321 -558h-97l502 873v-1147h126v1330h-165l-603 -1055l-320 557v-916h-294v1498h298l366 -641l-49 -84l-366 641h-165v-1330h126v1147l404 -703z" />
    <glyph glyph-name="N" unicode="N" horiz-adv-x="1594" 
d="M1100 518v980h294v-1498h-325l-785 1331v-1247h126v791l84 -143v-732h-294v1498h83l834 -1414h193v1330h-126v-1205l-759 1289h98z" />
    <glyph glyph-name="O" unicode="O" 
d="M951 1499q154 -40 266 -149.5t168 -264t56 -335.5q0 -158 -44.5 -297.5t-126.5 -245t-208 -167t-279 -61.5t-279 61.5t-208 167t-126.5 245t-44.5 297.5t44.5 297.5t126.5 245t208 166.5t279 61q14 0 42 -2v-198q100 -9 180 -62.5t128 -134.5t73 -176.5t25 -196.5
q0 -85 -16.5 -166t-52.5 -155t-87.5 -130t-127 -89t-164.5 -33t-164.5 33t-127 89t-87.5 130t-52.5 155t-16.5 166q0 113 29.5 217t94 191.5t156.5 128.5v-95q-98 -61 -147 -185.5t-49 -256.5q0 -66 12 -131.5t39.5 -131t68.5 -115t104 -80.5t140 -31t140 31t104 80.5
t68.5 115t39.5 131t12 131.5t-12 131.5t-40 130.5t-68.5 114.5t-103.5 80.5t-140 31q-23 0 -42 -3v200q-107 -7 -196 -49t-150.5 -108t-104 -152t-62 -180.5t-19.5 -195.5q0 -105 21 -203t67 -186.5t112.5 -154.5t162.5 -104.5t211 -38.5t211 38.5t162.5 104.5t112.5 154.5
t67 186.5t21 203q0 149 -42 281t-136 236.5t-228 144.5v87z" />
    <glyph glyph-name="P" unicode="P" horiz-adv-x="1375" 
d="M718 1498q137 0 241.5 -40t166.5 -109t93 -155.5t31 -186.5q0 -221 -132.5 -362t-362.5 -141h-135v84h135q190 0 300.5 114t110.5 305q0 46 -7 90.5t-35 105t-73.5 104.5t-131.5 75.5t-201 31.5h-434v-1330h126v702h322q224 0 224 221q0 100 -54.5 154.5t-155.5 54.5
h-252v-316h-84v400h336q136 0 215 -78.5t79 -214.5q0 -145 -81 -225t-227 -80h-238v-702h-294v1498h518z" />
    <glyph glyph-name="Q" unicode="Q" horiz-adv-x="1571" 
d="M783 1322q107 0 194 -48t141.5 -129t83.5 -182.5t29 -212.5q0 -63 -9 -123l104 -117q31 111 31 240q0 104 -21 202t-67 186.5t-112 154.5t-162.5 104.5t-211.5 38.5t-211.5 -38.5t-162.5 -104.5t-112 -154.5t-67 -186.5t-21 -202q0 -105 21 -203t67 -186.5t112.5 -154.5
t162.5 -104.5t211 -38.5q53 0 106 11l63 -72q-85 -23 -169 -23q-153 0 -279 61.5t-208 167t-126.5 245t-44.5 297.5t44.5 297.5t126.5 245t208 166.5t279 61t279 -61t208 -166.5t126.5 -245t44.5 -297.5q0 -222 -84 -402l-225 255q15 75 15 147q0 66 -12 132t-40 131
t-68.5 114.5t-103.5 80t-140 30.5t-140 -31t-103.5 -80.5t-68.5 -114.5t-40 -130.5t-12 -131.5t12 -132t40 -131t68.5 -114.5t103.5 -80.5t140 -31q108 0 177 49l326 -368l84 75l-329 372q28 38 46 75l401 -454l-208 -187l-339 381q-63 -27 -158 -27q-107 0 -193.5 48
t-141 129t-84 182.5t-29.5 213.5q0 111 29.5 212.5t84 182.5t141 129t193.5 48z" />
    <glyph glyph-name="R" unicode="R" horiz-adv-x="1404" 
d="M717 1498q126 0 229 -36.5t169.5 -101t102.5 -151t36 -186.5q0 -136 -57 -242.5t-162 -165.5l-49 67q184 108 184 341q0 180 -123.5 285.5t-329.5 105.5h-433v-1330h126v728h87l535 -728h148l-540 728h82q238 0 238 211q0 93 -61 143t-167 50h-238v-290h-84v374h322
q142 0 227 -75.5t85 -201.5q0 -119 -63.5 -195.5t-178.5 -92.5l545 -735h-358l-495 675v-675h-294v1498h517z" />
    <glyph glyph-name="S" unicode="S" horiz-adv-x="1257" 
d="M729 975q200 -81 301.5 -216t101.5 -338q0 -142 -71 -243t-192.5 -150t-282.5 -49q-265 0 -522 139l102 271q244 -128 420 -128q252 0 252 160q0 28 -4.5 54t-9.5 46t-18 40.5l-21 33.5t-28 30l-29.5 25t-35 23.5t-34.5 20.5l-38.5 21t-37.5 20q-47 25 -75 42.5t-65 48
t-57.5 62t-35.5 79t-15 104.5q0 107 77 179t233 72q143 0 300 -66l42 115q-77 35 -146.5 50t-196.5 15q-122 0 -219 -40t-156.5 -124t-59.5 -202q0 -288 276 -414l-29 -79q-331 149 -331 493q0 108 42 195.5t114 142t165 83.5t198 29q84 0 148 -6.5t118.5 -23.5t88.5 -32
t93 -45l-100 -272q-188 97 -347 97q-111 0 -168.5 -43.5t-57.5 -123.5q0 -37 6.5 -68t23.5 -56.5t31 -42t44.5 -37t46.5 -29.5l54 -30q117 -63 158 -95q128 -98 139 -257q1 -17 1 -35q0 -32 -6.5 -61t-28 -64t-56.5 -60t-98 -42t-147 -17q-168 0 -374 96l-43 -114
q202 -96 417 -96q73 0 138 11t125.5 38t103.5 67t69 102t26 140q0 170 -84 285.5t-263 189.5z" />
    <glyph glyph-name="T" unicode="T" horiz-adv-x="1225" 
d="M676 1498h474v-282h-264v84h180v114h-306v-1414h-294v1414h-307v-114h181v-84h-265v282h475v-1414h126v1414z" />
    <glyph glyph-name="U" unicode="U" horiz-adv-x="1539" 
d="M1045 1498h294v-917q0 -131 -35 -239.5t-103.5 -190t-178.5 -127t-252 -45.5q-28 0 -42 1v199q-44 3 -84.5 14t-84.5 40t-75.5 71.5t-52.5 114t-21 162.5v833h-126v-833q0 -59 7.5 -114t29 -116.5t55.5 -110.5t92 -91.5t134 -64.5v-87q-199 50 -300.5 204.5t-101.5 379.5
v917h294v-917q0 -320 276 -320q14 0 42 2v-199q80 5 145.5 26.5t110.5 53.5t79.5 75.5t54.5 88t32.5 95.5t16.5 92.5t4 85.5v833h-126v-833q0 -285 -191 -371v96q107 76 107 275v917z" />
    <glyph glyph-name="V" unicode="V" horiz-adv-x="1442" 
d="M1083 1498h310l-537 -1498h-55l-501 1414h-132l508 -1414h-89l-538 1498h310l470 -1325l445 1241h-132l-313 -883l-44 127z" />
    <glyph glyph-name="W" unicode="W" horiz-adv-x="2335" 
d="M1978 1498h307l-513 -1498h-289l-485 1414h-129l125 -365l-286 -840l-411 1205h-129l455 -1330h169l267 778l44 -130l-251 -732h-289l-513 1498h307l351 -1028l197 579l-154 449h307l485 -1414h169l455 1330h-129l-411 -1205l-440 1289h89l351 -1028z" />
    <glyph glyph-name="X" unicode="X" horiz-adv-x="1445" 
d="M1050 0l-450 701l-396 -617h145l252 392l50 -78l-256 -398h-345l550 856l496 -772h145l-446 695l408 635h-144l-336 -523l-337 523h-144l286 -444l-50 -78l-390 606h344l291 -451l290 451h344l-462 -719l500 -779h-345z" />
    <glyph glyph-name="Y" unicode="Y" horiz-adv-x="1362" 
d="M980 1498h332l-484 -885v-613h-294v448h84v-364h126v551l426 779h-140l-466 -852l-514 936h332l229 -420l-48 -87l-231 423h-140l372 -677z" />
    <glyph glyph-name="Z" unicode="Z" horiz-adv-x="1348" 
d="M513 282h710v-282h-1098v225l601 878h102l-619 -904v-115h930v114h-785l696 1018h-863v282h1023v-84h-939v-114h938z" />
    <glyph glyph-name="bracketleft" unicode="[" horiz-adv-x="847" 
d="M479 707h-195v-810h329v103h-218v604h84v-520h218v-271h-497v978h195v707h218v103h-329v-707h-84v791h497v-271h-218v-707z" />
    <glyph glyph-name="backslash" unicode="\" horiz-adv-x="1276" 
d="M-1 1685h313l964 -1872h-95l-920 1788h-124l920 -1788h-95z" />
    <glyph glyph-name="bracketright" unicode="]" horiz-adv-x="847" 
d="M563 707h-195v707h-218v271h497v-791h-84v707h-329v-103h218v-707h195v-978h-497v271h218v520h84v-604h-218v-103h329v810z" />
    <glyph glyph-name="asciicircum" unicode="^" horiz-adv-x="1281" 
d="M943 863l-419 562l-357 -478h129l228 306l53 -70l-239 -320h-338l490 657h68l427 -573h129l-427 573h105l489 -657h-338z" />
    <glyph glyph-name="underscore" unicode="_" horiz-adv-x="1150" 
d="M0 -142h1150v-258h-1150v84h1066v90h-1066v84z" />
    <glyph glyph-name="grave" unicode="`" horiz-adv-x="687" 
d="M368 1990l259 -366h-307l-260 366h103l200 -282h102l-200 282h103z" />
    <glyph glyph-name="a" unicode="a" horiz-adv-x="1484" 
d="M889 1498l545 -1498h-307l-135 373h-717l-105 -289h127l64 175h89l-94 -259h-306l166 457h835l135 -373h128l-484 1330h-176l-276 -759h512l-148 407l-107 -293h-89l196 539l268 -737h-752l337 927h294z" />
    <glyph glyph-name="b" unicode="b" horiz-adv-x="1415" 
d="M917 908q172 -43 267.5 -160.5t95.5 -299.5q0 -191 -135 -319.5t-358 -128.5h-587v1498h529q107 0 197.5 -33t149.5 -88t92 -125t33 -146q0 -116 -35 -188l-71 46q22 53 22 142q0 127 -107 217.5t-281 90.5h-445v-1330h503q191 0 300 105.5t109 258.5q0 102 -35.5 179.5
t-99 124t-145 69.5t-178.5 23h-118v84h114q80 0 128.5 40.5t48.5 119.5q0 62 -52 95t-139 33h-226v-486h273q138 0 220.5 -76t82.5 -194q0 -111 -71.5 -186.5t-208.5 -75.5h-380v334h84v-250h296q99 0 147.5 50t48.5 128q0 79 -56 132.5t-163 53.5h-357v654h310
q73 0 128 -19t86 -50.5t46 -67.5t15 -75q0 -86 -44 -147q-16 -20 -34 -33z" />
    <glyph glyph-name="c" unicode="c" horiz-adv-x="1336" 
d="M1128 385l134 -257q-224 -149 -481 -149q-122 0 -227.5 38.5t-183.5 108t-133.5 164t-83.5 208t-28 238.5v28q0 22 2 62h211q10 129 61.5 240t148.5 183.5t221 72.5q89 0 154.5 -20t131.5 -61l58 104q-150 91 -350 91q-109 0 -201.5 -39.5t-158.5 -108.5t-110.5 -157.5
t-65.5 -190.5h-86q23 119 74 222.5t128 184t185 127t235 46.5q140 0 250 -36.5t211 -112.5l-140 -251q-91 65 -154 91.5t-161 26.5q-81 0 -148.5 -41t-111 -108.5t-67 -151.5t-23.5 -173v-22h-210v-6q0 -134 36.5 -253.5t105.5 -214t180 -150t250 -55.5q196 0 370 96
l-56 107q-156 -89 -306 -89q-99 0 -180 36.5t-134.5 100.5t-87 143.5t-45.5 171.5h85q11 -75 37.5 -139t69.5 -116.5t108.5 -82.5t146.5 -30q89 0 169.5 32.5t169.5 91.5z" />
    <glyph glyph-name="d" unicode="d" horiz-adv-x="1467" 
d="M672 1498q307 0 488.5 -196.5t181.5 -551.5q0 -223 -85 -393.5t-240.5 -263.5t-358.5 -93h-458v1300h473q215 0 337 -145.5t122 -404.5q0 -248 -127 -400t-333 -152h-262v905h84v-821h178q171 0 273.5 128.5t102.5 339.5q0 225 -98 345.5t-278 120.5h-388v-1132h374
q274 0 437 181.5t163 484.5q0 322 -162 498q-152 166 -424 166h-472v84h472z" />
    <glyph glyph-name="e" unicode="e" horiz-adv-x="1277" 
d="M494 282h633v-282h-927v1498h913v-282h-619v-175h-84v259h619v114h-745v-1330h759v114h-633v729h680v-282h-470v84h386v114h-512v-561z" />
    <glyph glyph-name="f" unicode="f" horiz-adv-x="1196" 
d="M410 1300h577v114h-703v-487h658v-282h-658v-561h126v448h84v-532h-294v729h658v114h-658v655h871v-282h-577v-175h-84v259z" />
    <glyph glyph-name="g" unicode="g" horiz-adv-x="1443" 
d="M1293 741h-469v-114h469v-488q-226 -160 -510 -160q-156 0 -282.5 61t-207.5 167t-124.5 245t-43.5 298v14q0 145 44 280t124 241.5t204.5 170.5t273.5 64q140 0 250 -36.5t211 -112.5l-139 -251q-91 65 -154.5 91.5t-161.5 26.5q-87 0 -157.5 -44t-113 -114t-65 -152
t-22.5 -164v-14q0 -70 11.5 -137t39 -131.5t68 -113t103 -78t139.5 -29.5q129 0 219 40v129h84v-183l-43 -20q-109 -50 -260 -50q-89 0 -163 32t-125.5 86.5t-87.5 128t-52.5 156t-16.5 170.5v14q0 104 29.5 202.5t84 178.5t140 128.5t188.5 48.5q89 0 154.5 -20t132.5 -61
l58 104q-152 91 -351 91q-107 0 -199 -38t-157.5 -103t-112.5 -151t-70 -183t-23 -197v-14q0 -136 35.5 -257.5t103.5 -218.5t180.5 -154t254.5 -57q234 0 426 121v359h-469v282h553v-84z" />
    <glyph glyph-name="h" unicode="h" horiz-adv-x="1539" 
d="M1045 1498h294v-1498h-294v646h-761v-562h126v448h84v-532h-294v730h929v-646h126v1330h-126v-570h-929v654h294v-456h-84v372h-126v-486h761v570z" />
    <glyph glyph-name="i" unicode="i" horiz-adv-x="744" 
d="M519 1216h-210v-1132h126v1018h84v-1102h-294v1300h210v114h-210v84h294v-282z" />
    <glyph glyph-name="j" unicode="j" horiz-adv-x="1132" 
d="M346 1414v-114h586v-827q0 -220 -108.5 -357t-309.5 -137q-146 0 -250 38.5t-189 111.5l135 250q155 -118 278 -118q78 0 114 50.5t36 159.5v631h84v-631q0 -87 -21 -148t-57 -91t-74 -42.5t-82 -12.5q-115 0 -248 80l-57 -105q132 -89 331 -89q161 0 247 109
q87 110 87 301v743h-586v282h670v-84h-586z" />
    <glyph glyph-name="k" unicode="k" horiz-adv-x="1450" 
d="M731 780l671 -780h-381l-401 468v130l439 -514h160l-599 696l546 634h-156l-516 -602v-812h-294v1498h294v-378l-84 -98v392h-126v-1330h126v759l562 655h377z" />
    <glyph glyph-name="l" unicode="l" horiz-adv-x="1103" 
d="M284 282h744v-282h-828v84h744v114h-744v1300h294v-1102h-84v1018h-126v-1132z" />
    <glyph glyph-name="m" unicode="m" horiz-adv-x="1866" 
d="M1368 1498h298v-1498h-294v916l-321 -558h-97l502 873v-1147h126v1330h-165l-603 -1055l-320 557v-916h-294v1498h298l366 -641l-49 -84l-366 641h-165v-1330h126v1147l404 -703z" />
    <glyph glyph-name="n" unicode="n" horiz-adv-x="1594" 
d="M1100 518v980h294v-1498h-325l-785 1331v-1247h126v791l84 -143v-732h-294v1498h83l834 -1414h193v1330h-126v-1205l-759 1289h98z" />
    <glyph glyph-name="o" unicode="o" 
d="M951 1499q154 -40 266 -149.5t168 -264t56 -335.5q0 -158 -44.5 -297.5t-126.5 -245t-208 -167t-279 -61.5t-279 61.5t-208 167t-126.5 245t-44.5 297.5t44.5 297.5t126.5 245t208 166.5t279 61q14 0 42 -2v-198q100 -9 180 -62.5t128 -134.5t73 -176.5t25 -196.5
q0 -85 -16.5 -166t-52.5 -155t-87.5 -130t-127 -89t-164.5 -33t-164.5 33t-127 89t-87.5 130t-52.5 155t-16.5 166q0 113 29.5 217t94 191.5t156.5 128.5v-95q-98 -61 -147 -185.5t-49 -256.5q0 -66 12 -131.5t39.5 -131t68.5 -115t104 -80.5t140 -31t140 31t104 80.5
t68.5 115t39.5 131t12 131.5t-12 131.5t-40 130.5t-68.5 114.5t-103.5 80.5t-140 31q-23 0 -42 -3v200q-107 -7 -196 -49t-150.5 -108t-104 -152t-62 -180.5t-19.5 -195.5q0 -105 21 -203t67 -186.5t112.5 -154.5t162.5 -104.5t211 -38.5t211 38.5t162.5 104.5t112.5 154.5
t67 186.5t21 203q0 149 -42 281t-136 236.5t-228 144.5v87z" />
    <glyph glyph-name="p" unicode="p" horiz-adv-x="1375" 
d="M718 1498q137 0 241.5 -40t166.5 -109t93 -155.5t31 -186.5q0 -221 -132.5 -362t-362.5 -141h-135v84h135q190 0 300.5 114t110.5 305q0 46 -7 90.5t-35 105t-73.5 104.5t-131.5 75.5t-201 31.5h-434v-1330h126v702h322q224 0 224 221q0 100 -54.5 154.5t-155.5 54.5
h-252v-316h-84v400h336q136 0 215 -78.5t79 -214.5q0 -145 -81 -225t-227 -80h-238v-702h-294v1498h518z" />
    <glyph glyph-name="q" unicode="q" horiz-adv-x="1571" 
d="M783 1322q107 0 194 -48t141.5 -129t83.5 -182.5t29 -212.5q0 -63 -9 -123l104 -117q31 111 31 240q0 104 -21 202t-67 186.5t-112 154.5t-162.5 104.5t-211.5 38.5t-211.5 -38.5t-162.5 -104.5t-112 -154.5t-67 -186.5t-21 -202q0 -105 21 -203t67 -186.5t112.5 -154.5
t162.5 -104.5t211 -38.5q53 0 106 11l63 -72q-85 -23 -169 -23q-153 0 -279 61.5t-208 167t-126.5 245t-44.5 297.5t44.5 297.5t126.5 245t208 166.5t279 61t279 -61t208 -166.5t126.5 -245t44.5 -297.5q0 -222 -84 -402l-225 255q15 75 15 147q0 66 -12 132t-40 131
t-68.5 114.5t-103.5 80t-140 30.5t-140 -31t-103.5 -80.5t-68.5 -114.5t-40 -130.5t-12 -131.5t12 -132t40 -131t68.5 -114.5t103.5 -80.5t140 -31q108 0 177 49l326 -368l84 75l-329 372q28 38 46 75l401 -454l-208 -187l-339 381q-63 -27 -158 -27q-107 0 -193.5 48
t-141 129t-84 182.5t-29.5 213.5q0 111 29.5 212.5t84 182.5t141 129t193.5 48z" />
    <glyph glyph-name="r" unicode="r" horiz-adv-x="1404" 
d="M717 1498q126 0 229 -36.5t169.5 -101t102.5 -151t36 -186.5q0 -136 -57 -242.5t-162 -165.5l-49 67q184 108 184 341q0 180 -123.5 285.5t-329.5 105.5h-433v-1330h126v728h87l535 -728h148l-540 728h82q238 0 238 211q0 93 -61 143t-167 50h-238v-290h-84v374h322
q142 0 227 -75.5t85 -201.5q0 -119 -63.5 -195.5t-178.5 -92.5l545 -735h-358l-495 675v-675h-294v1498h517z" />
    <glyph glyph-name="s" unicode="s" horiz-adv-x="1257" 
d="M729 975q200 -81 301.5 -216t101.5 -338q0 -142 -71 -243t-192.5 -150t-282.5 -49q-265 0 -522 139l102 271q244 -128 420 -128q252 0 252 160q0 28 -4.5 54t-9.5 46t-18 40.5l-21 33.5t-28 30l-29.5 25t-35 23.5t-34.5 20.5l-38.5 21t-37.5 20q-47 25 -75 42.5t-65 48
t-57.5 62t-35.5 79t-15 104.5q0 107 77 179t233 72q143 0 300 -66l42 115q-77 35 -146.5 50t-196.5 15q-122 0 -219 -40t-156.5 -124t-59.5 -202q0 -288 276 -414l-29 -79q-331 149 -331 493q0 108 42 195.5t114 142t165 83.5t198 29q84 0 148 -6.5t118.5 -23.5t88.5 -32
t93 -45l-100 -272q-188 97 -347 97q-111 0 -168.5 -43.5t-57.5 -123.5q0 -37 6.5 -68t23.5 -56.5t31 -42t44.5 -37t46.5 -29.5l54 -30q117 -63 158 -95q128 -98 139 -257q1 -17 1 -35q0 -32 -6.5 -61t-28 -64t-56.5 -60t-98 -42t-147 -17q-168 0 -374 96l-43 -114
q202 -96 417 -96q216 0 341 94q121 92 121 264q0 170 -84 285.5t-263 189.5z" />
    <glyph glyph-name="t" unicode="t" horiz-adv-x="1225" 
d="M676 1498h474v-282h-264v84h180v114h-306v-1414h-294v1414h-307v-114h181v-84h-265v282h475v-1414h126v1414z" />
    <glyph glyph-name="u" unicode="u" horiz-adv-x="1539" 
d="M1045 1498h294v-917q0 -131 -35 -239.5t-103.5 -190t-178.5 -127t-252 -45.5q-28 0 -42 1v199q-44 3 -84.5 14t-84.5 40t-75.5 71.5t-52.5 114t-21 162.5v833h-126v-833q0 -59 7.5 -114t29 -116.5t55.5 -110.5t92 -91.5t134 -64.5v-87q-199 50 -300.5 204.5t-101.5 379.5
v917h294v-917q0 -320 276 -320q14 0 42 2v-199q80 5 145.5 26.5t110.5 53.5t79.5 75.5t54.5 88t32.5 95.5t16.5 92.5t4 85.5v833h-126v-833q0 -285 -191 -371v96q107 76 107 275v917z" />
    <glyph glyph-name="v" unicode="v" horiz-adv-x="1444" 
d="M1084 1498h310l-537 -1498h-55l-501 1414h-132l508 -1414h-89l-538 1498h310l470 -1325l445 1241h-132l-313 -883l-44 127z" />
    <glyph glyph-name="w" unicode="w" horiz-adv-x="2257" 
d="M1896 1498h311l-572 -1498h-274l-168 439l45 118l181 -473h158l508 1330h-131l-456 -1197l-456 1197h-131l262 -687l-277 -727h-274l-572 1498h311l398 -1045l149 392l45 -118l-194 -510l-456 1197h-131l508 -1330h158l245 643l-294 771h311l398 -1045z" />
    <glyph glyph-name="x" unicode="x" horiz-adv-x="1445" 
d="M1050 0l-450 701l-396 -617h145l252 392l50 -78l-256 -398h-345l550 856l496 -772h145l-446 695l408 635h-144l-336 -523l-337 523h-144l286 -444l-50 -78l-390 606h344l291 -451l290 451h344l-462 -719l500 -779h-345z" />
    <glyph glyph-name="y" unicode="y" horiz-adv-x="1362" 
d="M980 1498h332l-484 -885v-613h-294v448h84v-364h126v551l426 779h-140l-466 -852l-514 936h332l229 -420l-48 -87l-231 423h-140l372 -677z" />
    <glyph glyph-name="z" unicode="z" horiz-adv-x="1348" 
d="M513 282h710v-282h-1098v225l601 878h102l-619 -904v-115h930v114h-785l696 1018h-863v282h1023v-84h-939v-114h938z" />
    <glyph glyph-name="braceleft" unicode="{" horiz-adv-x="829" 
d="M533 988q0 -56 -28 -123.5t-83 -112.5v-5q56 -45 83.5 -112.5t27.5 -123.5v-327q0 -48 42.5 -73.5t103.5 -25.5v-271q-111 0 -207 39t-156.5 116.5t-60.5 176.5v333q0 83 -80 118v90q71 -21 117.5 -75t46.5 -133v-333q0 -95 73 -158t183 -83v107q-67 18 -106.5 64
t-39.5 108v327q0 39 -20 88.5t-60 82.5l-31 25v86l31 25q40 32 60 81.5t20 88.5v327q0 62 39 107.5t107 64.5v108q-109 -19 -182.5 -83t-73.5 -159v-333q0 -79 -46.5 -133t-117.5 -75v90q80 36 80 118v333q0 100 60.5 177.5t156.5 116.5t207 39v-272q-61 0 -103.5 -25.5
t-42.5 -73.5v-327z" />
    <glyph glyph-name="bar" unicode="|" horiz-adv-x="678" 
d="M478 1970v-2370h-84v2286h-110v-2286h-84v2370h278z" />
    <glyph glyph-name="braceright" unicode="}" horiz-adv-x="829" 
d="M296 988v327q0 48 -42.5 73.5t-103.5 25.5v272q111 0 207 -39t156.5 -116.5t60.5 -177.5v-333q0 -82 80 -118v-90q-71 21 -117.5 75t-46.5 133v333q0 95 -73.5 159t-182.5 83v-108q68 -19 107 -64.5t39 -107.5v-327q0 -39 20 -88.5t60 -81.5l31 -25v-86l-31 -25
q-40 -33 -60 -82.5t-20 -88.5v-327q0 -62 -39.5 -108t-106.5 -64v-107q110 20 183 83t73 158v333q0 79 46.5 133t117.5 75v-90q-80 -35 -80 -118v-333q0 -99 -60.5 -176.5t-156.5 -116.5t-207 -39v271q61 0 103.5 25.5t42.5 73.5v327q0 56 27.5 123.5t83.5 112.5v5
q-55 45 -83 112.5t-28 123.5z" />
    <glyph glyph-name="asciitilde" unicode="~" horiz-adv-x="1490" 
d="M1143 948l251 -103q-75 -157 -178 -235.5t-223 -78.5t-262 69q-13 6 -38 18.5l-34.5 17l-28.5 13.5t-28 12l-24.5 8.5t-25.5 7.5t-22.5 3.5t-25.5 1.5q-51 0 -83.5 -28.5t-82.5 -110.5l-77 33q62 113 117.5 151.5t125.5 38.5q53 0 98 -15.5t121 -53.5l45 -22
q123 -60 225 -60q165 0 282 188l-97 40q-38 -60 -83.5 -92t-113.5 -32q-40 0 -80.5 10.5t-69 23.5t-88.5 43l-26 13q-121 60 -225 60q-189 0 -325 -254l-79 30q157 308 404 308q124 0 262 -69l20 -10q82 -41 122 -56t85 -15q50 0 82 30t80 115z" />
    <glyph glyph-name="uni00A0" unicode="&#xa0;" horiz-adv-x="0" 
 />
    <glyph glyph-name="exclamdown" unicode="&#xa1;" horiz-adv-x="737" 
d="M537 -316h-337v480l34 601h84l-34 -604v-393h169v393l-34 604h84l34 -601v-480zM368 889q-68 0 -116.5 48.5t-48.5 117.5q0 48 25.5 87.5t67.5 60.5l37 -75q-46 -22 -46 -73q0 -34 23.5 -58t57.5 -24t58 24t24 58q0 51 -46 73l38 75q41 -21 66.5 -60.5t25.5 -87.5
q0 -69 -48.5 -117.5t-117.5 -48.5z" />
    <glyph glyph-name="dieresis" unicode="&#xa8;" horiz-adv-x="1338" 
d="M392 1615q-39 19 -63 56.5t-24 83.5q0 64 45 109t109 45t109.5 -45t45.5 -109q0 -46 -24 -83.5t-64 -56.5l-37 76q41 19 41 64q0 29 -21 49.5t-50 20.5t-49.5 -20.5t-20.5 -49.5q0 -45 41 -64zM811 1615q-40 19 -64 56.5t-24 83.5q0 64 45.5 109t109.5 45t109.5 -45
t45.5 -109q0 -46 -24 -83.5t-64 -56.5l-37 76q41 19 41 64q0 29 -21 49.5t-50 20.5t-50 -20.5t-21 -49.5q0 -45 41 -64z" />
    <glyph glyph-name="copyright" unicode="&#xa9;" horiz-adv-x="1841" 
d="M1162 546l120 -232q-178 -123 -369 -123q-216 0 -348.5 151.5t-132.5 397.5v19q0 23 4 67h181q18 130 93.5 220t193.5 90q109 0 198 -58l45 80q-106 66 -247 66q-138 0 -232 -87.5t-131 -226.5h-87q41 173 158 285.5t292 112.5q102 0 187 -28.5t170 -96.5l-126 -226
q-71 53 -117 74t-110 21t-112.5 -44.5t-71.5 -109.5t-23 -139v-17h-181q0 -212 108 -339.5t289 -127.5q137 0 259 69l-42 82q-109 -63 -212 -63q-127 0 -203 83.5t-96 211.5h85q17 -92 69.5 -151.5t144.5 -59.5q59 0 114.5 24t129.5 75zM921 1520q157 0 299.5 -61
t245.5 -164t164 -246t61 -300t-61 -299.5t-164 -245.5t-245.5 -164t-299.5 -61t-300 61t-246 164t-164 245.5t-61 299.5t61 300t164 246t246 164t300 61zM921 63q139 0 266 54.5t219 146.5t146.5 219t54.5 266q0 140 -54.5 267t-146.5 219t-219 146.5t-266 54.5
q-140 0 -267 -54.5t-219 -146.5t-146.5 -219t-54.5 -267q0 -139 54.5 -266t146.5 -219t219 -146.5t267 -54.5z" />
    <glyph glyph-name="guillemotleft" unicode="&#xab;" horiz-adv-x="1274" 
d="M401 605l53 70l246 -329l-206 -154l-310 413l400 529l-74 55l-383 -510l-52 70l418 557l209 -155l-413 -546l222 -296l72 54zM898 605l53 70l246 -329l-206 -154l-310 413l400 529l-74 55l-383 -510l-52 70l418 557l209 -155l-413 -546l222 -296l72 54z" />
    <glyph glyph-name="uni00AD" unicode="&#xad;" horiz-adv-x="1080" 
 />
    <glyph glyph-name="registered" unicode="&#xae;" horiz-adv-x="1105" 
d="M725 1205q0 -52 -24.5 -89.5t-70.5 -52.5l115 -171h-107l-104 162h-49v-162h-90v459h159q85 0 128 -40.5t43 -105.5zM562 1136q37 0 55 20t18 49t-18.5 46.5t-50.5 17.5h-81v-133h77zM553 1520q167 0 284.5 -118t117.5 -285t-117.5 -284.5t-284.5 -117.5t-285 117.5
t-118 284.5t118 285t285 118zM553 799q131 0 224.5 93.5t93.5 224.5q0 132 -93.5 225.5t-224.5 93.5q-132 0 -225.5 -93.5t-93.5 -225.5q0 -131 93.5 -224.5t225.5 -93.5z" />
    <glyph glyph-name="acute" unicode="&#xb4;" horiz-adv-x="687" 
d="M60 1624l259 366h103l-200 -282h102l200 282h103l-260 -366h-307z" />
    <glyph glyph-name="guillemotright" unicode="&#xbb;" horiz-adv-x="1274" 
d="M820 675l53 -70l-182 -242l72 -54l222 296l-413 546l209 155l418 -557l-52 -70l-383 510l-74 -55l400 -529l-310 -413l-206 154zM323 675l53 -70l-182 -242l72 -54l222 296l-413 546l209 155l418 -557l-52 -70l-383 510l-74 -55l400 -529l-310 -413l-206 154z" />
    <glyph glyph-name="questiondown" unicode="&#xbf;" horiz-adv-x="1152" 
d="M632 889q-69 0 -117.5 48.5t-48.5 117.5q0 48 25.5 87.5t67.5 60.5l37 -75q-46 -22 -46 -73q0 -34 24 -58t58 -24t57.5 24t23.5 58q0 50 -45 73l37 75q41 -21 66.5 -60.5t25.5 -87.5q0 -69 -48.5 -117.5t-116.5 -48.5zM646 -338q-230 0 -363 124.5t-133 316.5q0 35 6 69
t13.5 59t25 56t28 48t36.5 47t36.5 41l42 43l39.5 40q40 42 58.5 66.5t34 70t15.5 105.5v16h84v-16q0 -61 -10 -106.5t-36.5 -87.5t-50 -68.5t-73.5 -76.5q-42 -43 -65.5 -70t-50 -66t-38 -80.5t-11.5 -89.5q0 -163 112 -260t300 -97q167 0 317 115l-70 90
q-124 -91 -251 -91q-125 0 -203.5 66.5t-78.5 172.5q0 29 8 57.5t18 49t31 47.5t33.5 41l40 43l37.5 39q43 46 62.5 68.5t45 59t35 67t17 75.5t7.5 102v16h84v-16q0 -65 -9 -118t-21.5 -90t-40.5 -78.5t-50.5 -68t-67.5 -74.5l-41 -43.5t-42.5 -46t-30 -39t-25.5 -47
t-7 -44.5q0 -68 53 -111.5t145 -43.5q65 0 126.5 29t137.5 98l172 -221q-196 -188 -432 -188z" />
    <glyph glyph-name="Agrave" unicode="&#xc0;" horiz-adv-x="1482" 
d="M888 1498l545 -1498h-307l-135 373h-717l-105 -289h127l64 175h89l-94 -259h-306l166 457h835l135 -373h128l-484 1330h-176l-276 -759h512l-148 407l-107 -293h-89l196 539l268 -737h-752l337 927h294zM766 1990l259 -366h-307l-260 366h103l200 -282h102l-200 282h103z
" />
    <glyph glyph-name="Aacute" unicode="&#xc1;" horiz-adv-x="1482" 
d="M888 1498l545 -1498h-307l-135 373h-717l-105 -289h127l64 175h89l-94 -259h-306l166 457h835l135 -373h128l-484 1330h-176l-276 -759h512l-148 407l-107 -293h-89l196 539l268 -737h-752l337 927h294zM458 1624l259 366h103l-200 -282h102l200 282h103l-260 -366h-307z
" />
    <glyph glyph-name="Acircumflex" unicode="&#xc2;" horiz-adv-x="1482" 
d="M888 1498l545 -1498h-307l-135 373h-717l-105 -289h127l64 175h89l-94 -259h-306l166 457h835l135 -373h128l-484 1330h-176l-276 -759h512l-148 407l-107 -293h-89l196 539l268 -737h-752l337 927h294zM853 1624l-218 276l-151 -192h104l48 60l53 -68l-60 -76h-319
l290 367h70l224 -283h105l-224 283h107l291 -367h-320z" />
    <glyph glyph-name="Atilde" unicode="&#xc3;" horiz-adv-x="1482" 
d="M888 1498l545 -1498h-307l-135 373h-717l-105 -289h127l64 175h89l-94 -259h-306l166 457h835l135 -373h128l-484 1330h-176l-276 -759h512l-148 407l-107 -293h-89l196 539l268 -737h-752l337 927h294zM414 1770q-32 -21 -63 -71l-72 44q53 86 143.5 132t193.5 46
q58 0 144 -28q9 -3 27 -9.5l27.5 -10t24 -6.5t27.5 -3q37 0 69 17t51 44l220 -130q-56 -86 -146.5 -132.5t-193.5 -46.5q-68 0 -126 20q-12 4 -32.5 12l-33 12.5t-29 8.5t-29.5 4q-37 0 -69 -17t-51 -44l-75 45q7 9 15 17l14.5 14.5t13 11.5t11 9t8.5 6.5t6 4.5l2 1
q58 36 125 36q44 0 116 -28q12 -5 34 -13q50 -16 100 -16q122 0 210 74l-78 47q-60 -41 -132 -41q-41 0 -109 24l-24 9q-72 24 -117 24q-116 0 -202 -67z" />
    <glyph glyph-name="Adieresis" unicode="&#xc4;" horiz-adv-x="1482" 
d="M888 1498l545 -1498h-307l-135 373h-717l-105 -289h127l64 175h89l-94 -259h-306l166 457h835l135 -373h128l-484 1330h-176l-276 -759h512l-148 407l-107 -293h-89l196 539l268 -737h-752l337 927h294zM464 1615q-39 19 -63 56.5t-24 83.5q0 64 45 109t109 45t109.5 -45
t45.5 -109q0 -46 -24 -83.5t-64 -56.5l-37 76q41 19 41 64q0 29 -21 49.5t-50 20.5t-49.5 -20.5t-20.5 -49.5q0 -45 41 -64zM883 1615q-40 19 -64 56.5t-24 83.5q0 64 45.5 109t109.5 45t109.5 -45t45.5 -109q0 -46 -24 -83.5t-64 -56.5l-37 76q41 19 41 64q0 29 -21 49.5
t-50 20.5t-50 -20.5t-21 -49.5q0 -45 41 -64z" />
    <glyph glyph-name="Aring" unicode="&#xc5;" horiz-adv-x="1482" 
d="M896 1475l537 -1475h-306l-136 373h-716l-106 -289h128l64 175h89l-94 -259h-307l167 457h834l136 -373h127l-519 1425q41 16 66 52t25 82q0 59 -42 101.5t-102 42.5q-59 0 -101.5 -42.5t-42.5 -101.5q0 -46 25 -82t66 -52l-311 -854h512l-148 407l-107 -293h-89l196 539
l268 -737h-752l329 904q-73 67 -73 168q0 95 66.5 161.5t161.5 66.5t161.5 -66.5t66.5 -161.5q0 -49 -19.5 -94t-53.5 -74z" />
    <glyph glyph-name="AE" unicode="&#xc6;" horiz-adv-x="2006" 
d="M1259 282h597v-282h-891v448h-420l-181 -448h-313l606 1498h1185v-282h-583v-288h560v-282h-1286l263 654h253v-456h-84v372h-112l-196 -486h1078v114h-560v456h583v114h-1044l-538 -1330h131l181 448h561v-448h723v114h-597v334h84v-250z" />
    <glyph glyph-name="Ccedilla" unicode="&#xc7;" horiz-adv-x="1336" 
d="M1261 128q-167 -111 -352 -139q14 -68 8 -134q-14 -129 -104 -207t-219 -78q-48 0 -87.5 3t-56.5 5.5t-44.5 8.5t-31.5 7l43 249q11 -2 37 -8t39.5 -8.5t38.5 -5t52 -2.5q81 0 81 72q0 41 -22 102q-163 32 -281.5 140.5t-177.5 263.5t-59 339v28q0 21 2 63h211
q8 96 40 183.5t85 157.5t132.5 112t173.5 42q89 0 154.5 -20t131.5 -61l58 104q-150 91 -350 91q-109 0 -201.5 -39.5t-158.5 -108.5t-110.5 -157.5t-65.5 -190.5h-86q23 119 74 222.5t128 184t185 127t235 46.5q140 0 250 -36.5t211 -112.5l-140 -251q-91 65 -154 91.5
t-161 26.5q-81 0 -148.5 -41t-111 -108t-67 -151.5t-23.5 -173.5v-21h-210v-7q0 -113 26 -217t78 -195t139 -156.5t200 -91.5q14 -3 54 -8q1 -3 8 -22t9 -25.5l7.5 -24t7.5 -27.5t5.5 -25t4.5 -27.5t1 -25.5q0 -71 -45.5 -113.5t-119.5 -42.5q-45 0 -99 8l-14 -82
q49 -7 123 -7q98 0 163.5 57t75.5 153q9 88 -33 200q29 0 56 3q156 15 295 92l-56 107q-156 -89 -306 -89q-99 0 -180 36.5t-134.5 100.5t-87 143.5t-45.5 171.5h85q11 -75 37.5 -138.5t69.5 -116.5t108.5 -83t146.5 -30q89 0 169.5 32.5t169.5 91.5z" />
    <glyph glyph-name="Egrave" unicode="&#xc8;" horiz-adv-x="1277" 
d="M494 282h633v-282h-927v1498h913v-282h-619v-175h-84v259h619v114h-745v-1330h759v114h-633v729h680v-282h-470v84h386v114h-512v-561zM641 1990l259 -366h-307l-260 366h103l200 -282h102l-200 282h103z" />
    <glyph glyph-name="Eacute" unicode="&#xc9;" horiz-adv-x="1277" 
d="M494 282h633v-282h-927v1498h913v-282h-619v-175h-84v259h619v114h-745v-1330h759v114h-633v729h680v-282h-470v84h386v114h-512v-561zM429 1624l259 366h103l-200 -282h102l200 282h103l-260 -366h-307z" />
    <glyph glyph-name="Ecircumflex" unicode="&#xca;" horiz-adv-x="1277" 
d="M494 282h633v-282h-927v1498h913v-282h-619v-175h-84v259h619v114h-745v-1330h759v114h-633v729h680v-282h-470v84h386v114h-512v-561zM769 1624l-218 276l-151 -192h104l48 60l53 -68l-60 -76h-319l290 367h70l224 -283h105l-224 283h107l291 -367h-320z" />
    <glyph glyph-name="Edieresis" unicode="&#xcb;" horiz-adv-x="1277" 
d="M494 282h633v-282h-927v1498h913v-282h-619v-175h-84v259h619v114h-745v-1330h759v114h-633v729h680v-282h-470v84h386v114h-512v-561zM392 1615q-39 19 -63 56.5t-24 83.5q0 64 45 109t109 45t109.5 -45t45.5 -109q0 -46 -24 -83.5t-64 -56.5l-37 76q41 19 41 64
q0 29 -21 49.5t-50 20.5t-49.5 -20.5t-20.5 -49.5q0 -45 41 -64zM811 1615q-40 19 -64 56.5t-24 83.5q0 64 45.5 109t109.5 45t109.5 -45t45.5 -109q0 -46 -24 -83.5t-64 -56.5l-37 76q41 19 41 64q0 29 -21 49.5t-50 20.5t-50 -20.5t-21 -49.5q0 -45 41 -64z" />
    <glyph glyph-name="Igrave" unicode="&#xcc;" horiz-adv-x="744" 
d="M519 1216h-210v-1132h126v1018h84v-1102h-294v1300h210v114h-210v84h294v-282zM396 1990l259 -366h-307l-260 366h103l200 -282h102l-200 282h103z" />
    <glyph glyph-name="Iacute" unicode="&#xcd;" horiz-adv-x="744" 
d="M519 1216h-210v-1132h126v1018h84v-1102h-294v1300h210v114h-210v84h294v-282zM88 1624l259 366h103l-200 -282h102l200 282h103l-260 -366h-307z" />
    <glyph glyph-name="Icircumflex" unicode="&#xce;" horiz-adv-x="744" 
d="M519 1216h-210v-1132h126v1018h84v-1102h-294v1300h210v114h-210v84h294v-282zM484 1624l-218 276l-151 -192h104l48 60l53 -68l-60 -76h-319l290 367h70l224 -283h105l-224 283h107l291 -367h-320z" />
    <glyph glyph-name="Idieresis" unicode="&#xcf;" horiz-adv-x="744" 
d="M519 1216h-210v-1132h126v1018h84v-1102h-294v1300h210v114h-210v84h294v-282zM95 1615q-39 19 -63 56.5t-24 83.5q0 64 45 109t109 45t109.5 -45t45.5 -109q0 -46 -24 -83.5t-64 -56.5l-37 76q41 19 41 64q0 29 -21 49.5t-50 20.5t-49.5 -20.5t-20.5 -49.5q0 -45 41 -64
zM514 1615q-40 19 -64 56.5t-24 83.5q0 64 45.5 109t109.5 45t109.5 -45t45.5 -109q0 -46 -24 -83.5t-64 -56.5l-37 76q41 19 41 64q0 29 -21 49.5t-50 20.5t-50 -20.5t-21 -49.5q0 -45 41 -64z" />
    <glyph glyph-name="Eth" unicode="&#xd0;" horiz-adv-x="1546" 
d="M751 1498q307 0 488.5 -196.5t181.5 -551.5q0 -338 -188.5 -544t-495.5 -206h-458v647h-204v273h204v380h472q216 0 338 -145.5t122 -404.5q0 -248 -127 -400t-334 -152h-261v533h222v105h-222v266h84v-182h222v-273h-222v-365h177q171 0 274 128.5t103 339.5
q0 225 -98.5 345.5t-277.5 120.5h-388v-380h-204v-105h204v-647h374q273 0 436.5 181.5t163.5 484.5q0 322 -162 498q-154 166 -424 166h-472v84h472z" />
    <glyph glyph-name="Ntilde" unicode="&#xd1;" horiz-adv-x="1594" 
d="M1100 518v980h294v-1498h-325l-785 1331v-1247h126v791l84 -143v-732h-294v1498h83l834 -1414h193v1330h-126v-1205l-759 1289h98zM469 1770q-32 -21 -63 -71l-72 44q53 86 143.5 132t193.5 46q58 0 144 -28q9 -3 27 -9.5l27.5 -10t24 -6.5t27.5 -3q37 0 69 17t51 44
l220 -130q-56 -86 -146.5 -132.5t-193.5 -46.5q-68 0 -126 20q-12 4 -32.5 12l-33 12.5t-29 8.5t-29.5 4q-37 0 -69 -17t-51 -44l-75 45q7 9 15 17l14.5 14.5t13 11.5t11 9t8.5 6.5t6 4.5l2 1q58 36 125 36q44 0 116 -28q12 -5 34 -13q50 -16 100 -16q122 0 210 74l-78 47
q-60 -41 -132 -41q-41 0 -109 24q-10 4 -24 9q-72 24 -117 24q-116 0 -202 -67z" />
    <glyph glyph-name="Ograve" unicode="&#xd2;" 
d="M951 1499q154 -40 266 -149.5t168 -264t56 -335.5q0 -158 -44.5 -297.5t-126.5 -245t-208 -167t-279 -61.5t-279 61.5t-208 167t-126.5 245t-44.5 297.5t44.5 297.5t126.5 245t208 166.5t279 61q14 0 42 -2v-198q100 -9 180 -62.5t128 -134.5t73 -176.5t25 -196.5
q0 -85 -16.5 -166t-52.5 -155t-87.5 -130t-127 -89t-164.5 -33t-164.5 33t-127 89t-87.5 130t-52.5 155t-16.5 166q0 113 29.5 217t94 191.5t156.5 128.5v-95q-98 -61 -147 -185.5t-49 -256.5q0 -66 12 -131.5t39.5 -131t68.5 -115t104 -80.5t140 -31t140 31t104 80.5
t68.5 115t39.5 131t12 131.5t-12 131.5t-40 130.5t-68.5 114.5t-103.5 80.5t-140 31q-23 0 -42 -3v200q-107 -7 -196 -49t-150.5 -108t-104 -152t-62 -180.5t-19.5 -195.5q0 -105 21 -203t67 -186.5t112.5 -154.5t162.5 -104.5t211 -38.5t211 38.5t162.5 104.5t112.5 154.5
t67 186.5t21 203q0 149 -42 281t-136 236.5t-228 144.5v87zM709 1990l259 -366h-307l-260 366h103l200 -282h102l-200 282h103z" />
    <glyph glyph-name="Oacute" unicode="&#xd3;" 
d="M951 1499q154 -40 266 -149.5t168 -264t56 -335.5q0 -158 -44.5 -297.5t-126.5 -245t-208 -167t-279 -61.5t-279 61.5t-208 167t-126.5 245t-44.5 297.5t44.5 297.5t126.5 245t208 166.5t279 61q14 0 42 -2v-198q100 -9 180 -62.5t128 -134.5t73 -176.5t25 -196.5
q0 -85 -16.5 -166t-52.5 -155t-87.5 -130t-127 -89t-164.5 -33t-164.5 33t-127 89t-87.5 130t-52.5 155t-16.5 166q0 113 29.5 217t94 191.5t156.5 128.5v-95q-98 -61 -147 -185.5t-49 -256.5q0 -66 12 -131.5t39.5 -131t68.5 -115t104 -80.5t140 -31t140 31t104 80.5
t68.5 115t39.5 131t12 131.5t-12 131.5t-40 130.5t-68.5 114.5t-103.5 80.5t-140 31q-23 0 -42 -3v200q-107 -7 -196 -49t-150.5 -108t-104 -152t-62 -180.5t-19.5 -195.5q0 -105 21 -203t67 -186.5t112.5 -154.5t162.5 -104.5t211 -38.5t211 38.5t162.5 104.5t112.5 154.5
t67 186.5t21 203q0 149 -42 281t-136 236.5t-228 144.5v87zM605 1624l259 366h103l-200 -282h102l200 282h103l-260 -366h-307z" />
    <glyph glyph-name="Ocircumflex" unicode="&#xd4;" 
d="M951 1499q154 -40 266 -149.5t168 -264t56 -335.5q0 -158 -44.5 -297.5t-126.5 -245t-208 -167t-279 -61.5t-279 61.5t-208 167t-126.5 245t-44.5 297.5t44.5 297.5t126.5 245t208 166.5t279 61q14 0 42 -2v-198q100 -9 180 -62.5t128 -134.5t73 -176.5t25 -196.5
q0 -85 -16.5 -166t-52.5 -155t-87.5 -130t-127 -89t-164.5 -33t-164.5 33t-127 89t-87.5 130t-52.5 155t-16.5 166q0 113 29.5 217t94 191.5t156.5 128.5v-95q-98 -61 -147 -185.5t-49 -256.5q0 -66 12 -131.5t39.5 -131t68.5 -115t104 -80.5t140 -31t140 31t104 80.5
t68.5 115t39.5 131t12 131.5t-12 131.5t-40 130.5t-68.5 114.5t-103.5 80.5t-140 31q-23 0 -42 -3v200q-107 -7 -196 -49t-150.5 -108t-104 -152t-62 -180.5t-19.5 -195.5q0 -105 21 -203t67 -186.5t112.5 -154.5t162.5 -104.5t211 -38.5t211 38.5t162.5 104.5t112.5 154.5
t67 186.5t21 203q0 149 -42 281t-136 236.5t-228 144.5v87zM894 1624l-218 276l-151 -192h104l48 60l53 -68l-60 -76h-319l290 367h70l224 -283h105l-224 283h107l291 -367h-320z" />
    <glyph glyph-name="Otilde" unicode="&#xd5;" 
d="M951 1499q154 -40 266 -149.5t168 -264t56 -335.5q0 -158 -44.5 -297.5t-126.5 -245t-208 -167t-279 -61.5t-279 61.5t-208 167t-126.5 245t-44.5 297.5t44.5 297.5t126.5 245t208 166.5t279 61q14 0 42 -2v-198q100 -9 180 -62.5t128 -134.5t73 -176.5t25 -196.5
q0 -85 -16.5 -166t-52.5 -155t-87.5 -130t-127 -89t-164.5 -33t-164.5 33t-127 89t-87.5 130t-52.5 155t-16.5 166q0 113 29.5 217t94 191.5t156.5 128.5v-95q-98 -61 -147 -185.5t-49 -256.5q0 -66 12 -131.5t39.5 -131t68.5 -115t104 -80.5t140 -31t140 31t104 80.5
t68.5 115t39.5 131t12 131.5t-12 131.5t-40 130.5t-68.5 114.5t-103.5 80.5t-140 31q-23 0 -42 -3v200q-107 -7 -196 -49t-150.5 -108t-104 -152t-62 -180.5t-19.5 -195.5q0 -105 21 -203t67 -186.5t112.5 -154.5t162.5 -104.5t211 -38.5t211 38.5t162.5 104.5t112.5 154.5
t67 186.5t21 203q0 149 -42 281t-136 236.5t-228 144.5v87zM455 1770q-32 -21 -63 -71l-72 44q53 86 143.5 132t193.5 46q58 0 144 -28q9 -3 27 -9.5l27.5 -10t24 -6.5t27.5 -3q37 0 69 17t51 44l220 -130q-56 -86 -146.5 -132.5t-193.5 -46.5q-68 0 -126 20q-12 4 -32.5 12
l-33 12.5t-29 8.5t-29.5 4q-37 0 -69 -17t-51 -44l-75 45q7 9 15 17l14.5 14.5t13 11.5t11 9t8.5 6.5t6 4.5l2 1q58 36 125 36q44 0 116 -28q12 -5 34 -13q50 -16 100 -16q122 0 210 74l-78 47q-60 -41 -132 -41q-41 0 -109 24q-10 4 -24 9q-72 24 -117 24q-116 0 -202 -67z
" />
    <glyph glyph-name="Odieresis" unicode="&#xd6;" 
d="M951 1499q154 -40 266 -149.5t168 -264t56 -335.5q0 -158 -44.5 -297.5t-126.5 -245t-208 -167t-279 -61.5t-279 61.5t-208 167t-126.5 245t-44.5 297.5t44.5 297.5t126.5 245t208 166.5t279 61q14 0 42 -2v-198q100 -9 180 -62.5t128 -134.5t73 -176.5t25 -196.5
q0 -85 -16.5 -166t-52.5 -155t-87.5 -130t-127 -89t-164.5 -33t-164.5 33t-127 89t-87.5 130t-52.5 155t-16.5 166q0 113 29.5 217t94 191.5t156.5 128.5v-95q-98 -61 -147 -185.5t-49 -256.5q0 -66 12 -131.5t39.5 -131t68.5 -115t104 -80.5t140 -31t140 31t104 80.5
t68.5 115t39.5 131t12 131.5t-12 131.5t-40 130.5t-68.5 114.5t-103.5 80.5t-140 31q-23 0 -42 -3v200q-107 -7 -196 -49t-150.5 -108t-104 -152t-62 -180.5t-19.5 -195.5q0 -105 21 -203t67 -186.5t112.5 -154.5t162.5 -104.5t211 -38.5t211 38.5t162.5 104.5t112.5 154.5
t67 186.5t21 203q0 149 -42 281t-136 236.5t-228 144.5v87zM506 1615q-39 19 -63 56.5t-24 83.5q0 64 45 109t109 45t109.5 -45t45.5 -109q0 -46 -24 -83.5t-64 -56.5l-37 76q41 19 41 64q0 29 -21 49.5t-50 20.5t-49.5 -20.5t-20.5 -49.5q0 -45 41 -64zM925 1615
q-40 19 -64 56.5t-24 83.5q0 64 45.5 109t109.5 45t109.5 -45t45.5 -109q0 -46 -24 -83.5t-64 -56.5l-37 76q41 19 41 64q0 29 -21 49.5t-50 20.5t-50 -20.5t-21 -49.5q0 -45 41 -64z" />
    <glyph glyph-name="Oslash" unicode="&#xd8;" 
d="M1524 1413l-188 -223q105 -192 105 -441q0 -158 -44.5 -297.5t-126.5 -245t-208 -166.5t-279 -61q-213 0 -367 113l-159 -188l-215 181l187 223q-104 193 -104 441q0 158 44.5 297.5t126.5 245t208 167t279 61.5q28 0 42 -1v-200q100 -9 180 -62t128 -134t73 -177
t25 -197q0 -85 -17 -166t-53 -155t-87.5 -129.5t-126.5 -88.5t-164 -33q-111 0 -199 50t-141 133t-80.5 182.5t-27.5 206.5q0 113 29.5 217.5t94 192t156.5 128.5v-96q-98 -60 -147 -184.5t-49 -257.5q0 -66 12 -131.5t39.5 -130.5t68.5 -114.5t104 -80.5t140 -31t140 31
t103.5 80.5t68.5 114.5t40 130.5t12 131.5t-12 131.5t-40 131t-68.5 115t-103.5 80.5t-140 31q-3 0 -42 -3v200q-107 -7 -196 -49.5t-150.5 -108t-104 -152t-62 -181t-19.5 -195.5q0 -265 123 -449l-172 -205l87 -73l158 188q150 -147 378 -147q115 0 211 38.5t162.5 104.5
t112.5 154t67 186t21 203q0 263 -123 450l172 204l-88 73l-158 -189q-87 88 -209 125v87q107 -27 199 -93l158 188z" />
    <glyph glyph-name="Ugrave" unicode="&#xd9;" horiz-adv-x="1539" 
d="M1045 1498h294v-917q0 -131 -35 -239.5t-103.5 -190t-178.5 -127t-252 -45.5q-28 0 -42 1v199q-44 3 -84.5 14t-84.5 40t-75.5 71.5t-52.5 114t-21 162.5v833h-126v-833q0 -59 7.5 -114t29 -116.5t55.5 -110.5t92 -91.5t134 -64.5v-87q-199 50 -300.5 204.5t-101.5 379.5
v917h294v-917q0 -320 276 -320q14 0 42 2v-199q80 5 145.5 26.5t110.5 53.5t79.5 75.5t54.5 88t32.5 95.5t16.5 92.5t4 85.5v833h-126v-833q0 -285 -191 -371v96q107 76 107 275v917zM691 1990l259 -366h-307l-260 366h103l200 -282h102l-200 282h103z" />
    <glyph glyph-name="Uacute" unicode="&#xda;" horiz-adv-x="1539" 
d="M1045 1498h294v-917q0 -131 -35 -239.5t-103.5 -190t-178.5 -127t-252 -45.5q-28 0 -42 1v199q-44 3 -84.5 14t-84.5 40t-75.5 71.5t-52.5 114t-21 162.5v833h-126v-833q0 -59 7.5 -114t29 -116.5t55.5 -110.5t92 -91.5t134 -64.5v-87q-199 50 -300.5 204.5t-101.5 379.5
v917h294v-917q0 -320 276 -320q14 0 42 2v-199q80 5 145.5 26.5t110.5 53.5t79.5 75.5t54.5 88t32.5 95.5t16.5 92.5t4 85.5v833h-126v-833q0 -285 -191 -371v96q107 76 107 275v917zM598 1624l259 366h103l-200 -282h102l200 282h103l-260 -366h-307z" />
    <glyph glyph-name="Ucircumflex" unicode="&#xdb;" horiz-adv-x="1539" 
d="M1045 1498h294v-917q0 -131 -35 -239.5t-103.5 -190t-178.5 -127t-252 -45.5q-28 0 -42 1v199q-44 3 -84.5 14t-84.5 40t-75.5 71.5t-52.5 114t-21 162.5v833h-126v-833q0 -59 7.5 -114t29 -116.5t55.5 -110.5t92 -91.5t134 -64.5v-87q-199 50 -300.5 204.5t-101.5 379.5
v917h294v-917q0 -320 276 -320q14 0 42 2v-199q80 5 145.5 26.5t110.5 53.5t79.5 75.5t54.5 88t32.5 95.5t16.5 92.5t4 85.5v833h-126v-833q0 -285 -191 -371v96q107 76 107 275v917zM881 1624l-218 276l-151 -192h104l48 60l53 -68l-60 -76h-319l290 367h70l224 -283h105
l-224 283h107l291 -367h-320z" />
    <glyph glyph-name="Udieresis" unicode="&#xdc;" horiz-adv-x="1539" 
d="M1045 1498h294v-917q0 -131 -35 -239.5t-103.5 -190t-178.5 -127t-252 -45.5q-28 0 -42 1v199q-44 3 -84.5 14t-84.5 40t-75.5 71.5t-52.5 114t-21 162.5v833h-126v-833q0 -59 7.5 -114t29 -116.5t55.5 -110.5t92 -91.5t134 -64.5v-87q-199 50 -300.5 204.5t-101.5 379.5
v917h294v-917q0 -320 276 -320q14 0 42 2v-199q80 5 145.5 26.5t110.5 53.5t79.5 75.5t54.5 88t32.5 95.5t16.5 92.5t4 85.5v833h-126v-833q0 -285 -191 -371v96q107 76 107 275v917zM492 1615q-39 19 -63 56.5t-24 83.5q0 64 45 109t109 45t109.5 -45t45.5 -109
q0 -46 -24 -83.5t-64 -56.5l-37 76q41 19 41 64q0 29 -21 49.5t-50 20.5t-49.5 -20.5t-20.5 -49.5q0 -45 41 -64zM911 1615q-40 19 -64 56.5t-24 83.5q0 64 45.5 109t109.5 45t109.5 -45t45.5 -109q0 -46 -24 -83.5t-64 -56.5l-37 76q41 19 41 64q0 29 -21 49.5t-50 20.5
t-50 -20.5t-21 -49.5q0 -45 41 -64z" />
    <glyph glyph-name="Yacute" unicode="&#xdd;" horiz-adv-x="1360" 
d="M979 1498h332l-484 -885v-613h-294v448h84v-364h126v551l426 779h-140l-466 -852l-514 936h332l229 -420l-48 -87l-231 423h-140l372 -677zM471 1624l259 366h103l-200 -282h102l200 282h103l-260 -366h-307z" />
    <glyph glyph-name="Thorn" unicode="&#xde;" horiz-adv-x="1336" 
d="M679 1301q112 0 202.5 -30t151 -80t101.5 -118.5t59 -144t18 -157.5q0 -108 -33 -204.5t-94 -170.5t-156 -117t-212 -43h-222v-236h-294v320h84v-236h126v236h306q103 0 183.5 38.5t129 103t73.5 143.5t25 166q0 191 -102 310q-116 136 -346 136h-269v197h-126v-896h409
q62 0 107 21.5t69.5 59t36 80t11.5 92.5q0 110 -55 179t-155 69h-213v-387h-84v471h297q131 0 212.5 -92t81.5 -240q0 -156 -82.5 -246.5t-225.5 -90.5h-493v1064h294v-197h185z" />
    <glyph glyph-name="germandbls" unicode="&#xdf;" horiz-adv-x="1441" 
d="M1102 856q101 -61 157.5 -158t56.5 -223q0 -97 -33.5 -183t-94.5 -151t-153.5 -103t-204.5 -38h-172v282h172q96 0 144 60t48 134q0 81 -66.5 131.5t-181.5 50.5h-55l402 586v170h-837v-1330h126v1216h602l-252 -369h-102l195 285h-359v-1216h-294v1498h1005v-280
l-333 -486q114 -22 174 -94t60 -162q0 -112 -74 -195t-202 -83h-88v-114h88q188 0 297 115q105 108 105 276q0 210 -178 311z" />
    <glyph glyph-name="agrave" unicode="&#xe0;" horiz-adv-x="1482" 
d="M888 1498l545 -1498h-307l-135 373h-717l-105 -289h127l64 175h89l-94 -259h-306l166 457h835l135 -373h128l-484 1330h-176l-276 -759h512l-148 407l-107 -293h-89l196 539l268 -737h-752l337 927h294zM766 1990l259 -366h-307l-260 366h103l200 -282h102l-200 282h103z
" />
    <glyph glyph-name="aacute" unicode="&#xe1;" horiz-adv-x="1482" 
d="M888 1498l545 -1498h-307l-135 373h-717l-105 -289h127l64 175h89l-94 -259h-306l166 457h835l135 -373h128l-484 1330h-176l-276 -759h512l-148 407l-107 -293h-89l196 539l268 -737h-752l337 927h294zM458 1624l259 366h103l-200 -282h102l200 282h103l-260 -366h-307z
" />
    <glyph glyph-name="acircumflex" unicode="&#xe2;" horiz-adv-x="1482" 
d="M888 1498l545 -1498h-307l-135 373h-717l-105 -289h127l64 175h89l-94 -259h-306l166 457h835l135 -373h128l-484 1330h-176l-276 -759h512l-148 407l-107 -293h-89l196 539l268 -737h-752l337 927h294zM852 1624l-218 276l-151 -192h104l48 60l53 -68l-60 -76h-319
l290 367h70l224 -283h105l-224 283h107l291 -367h-320z" />
    <glyph glyph-name="atilde" unicode="&#xe3;" horiz-adv-x="1482" 
d="M888 1498l545 -1498h-307l-135 373h-717l-105 -289h127l64 175h89l-94 -259h-306l166 457h835l135 -373h128l-484 1330h-176l-276 -759h512l-148 407l-107 -293h-89l196 539l268 -737h-752l337 927h294zM414 1770q-32 -21 -63 -71l-72 44q53 86 143.5 132t193.5 46
q58 0 144 -28q9 -3 27 -9.5l27.5 -10t24 -6.5t27.5 -3q37 0 69 17t51 44l220 -130q-56 -86 -146.5 -132.5t-193.5 -46.5q-68 0 -126 20q-12 4 -32.5 12l-33 12.5t-29 8.5t-29.5 4q-37 0 -69 -17t-51 -44l-75 45q7 9 15 17l14.5 14.5t13 11.5t11 9t8.5 6.5t6 4.5l2 1
q58 36 125 36q44 0 116 -28q12 -5 34 -13q50 -16 100 -16q122 0 210 74l-78 47q-60 -41 -132 -41q-41 0 -109 24l-24 9q-72 24 -117 24q-116 0 -202 -67z" />
    <glyph glyph-name="adieresis" unicode="&#xe4;" horiz-adv-x="1482" 
d="M888 1498l545 -1498h-307l-135 373h-717l-105 -289h127l64 175h89l-94 -259h-306l166 457h835l135 -373h128l-484 1330h-176l-276 -759h512l-148 407l-107 -293h-89l196 539l268 -737h-752l337 927h294zM464 1615q-39 19 -63 56.5t-24 83.5q0 64 45 109t109 45t109.5 -45
t45.5 -109q0 -46 -24 -83.5t-64 -56.5l-37 76q41 19 41 64q0 29 -21 49.5t-50 20.5t-49.5 -20.5t-20.5 -49.5q0 -45 41 -64zM883 1615q-40 19 -64 56.5t-24 83.5q0 64 45.5 109t109.5 45t109.5 -45t45.5 -109q0 -46 -24 -83.5t-64 -56.5l-37 76q41 19 41 64q0 29 -21 49.5
t-50 20.5t-50 -20.5t-21 -49.5q0 -45 41 -64z" />
    <glyph glyph-name="aring" unicode="&#xe5;" horiz-adv-x="1482" 
d="M896 1475l537 -1475h-306l-136 373h-716l-106 -289h128l64 175h89l-94 -259h-307l167 457h834l136 -373h127l-519 1425q41 16 66 52t25 82q0 59 -42 101.5t-102 42.5q-59 0 -101.5 -42.5t-42.5 -101.5q0 -46 25 -82t66 -52l-311 -854h512l-148 407l-107 -293h-89l196 539
l268 -737h-752l329 904q-73 67 -73 168q0 95 66.5 161.5t161.5 66.5t161.5 -66.5t66.5 -161.5q0 -49 -19.5 -94t-53.5 -74z" />
    <glyph glyph-name="ae" unicode="&#xe6;" horiz-adv-x="2006" 
d="M1259 282h597v-282h-891v448h-420l-181 -448h-313l606 1498h1185v-282h-583v-288h560v-282h-1286l263 654h253v-456h-84v372h-112l-196 -486h1078v114h-560v456h583v114h-1044l-538 -1330h131l181 448h561v-448h723v114h-597v334h84v-250z" />
    <glyph glyph-name="ccedilla" unicode="&#xe7;" horiz-adv-x="1336" 
d="M1261 128q-167 -111 -352 -139q14 -68 8 -134q-14 -129 -104 -207t-219 -78q-48 0 -87.5 3t-56.5 5.5t-44.5 8.5t-31.5 7l43 249q11 -2 37 -8t39.5 -8.5t38.5 -5t52 -2.5q81 0 81 72q0 41 -22 102q-163 32 -281.5 140.5t-177.5 263.5t-59 339v28q0 21 2 63h211
q8 96 40 183.5t85 157.5t132.5 112t173.5 42q89 0 154.5 -20t131.5 -61l58 104q-150 91 -350 91q-109 0 -201.5 -39.5t-158.5 -108.5t-110.5 -157.5t-65.5 -190.5h-86q23 119 74 222.5t128 184t185 127t235 46.5q140 0 250 -36.5t211 -112.5l-140 -251q-91 65 -154 91.5
t-161 26.5q-81 0 -148.5 -41t-111 -108t-67 -151.5t-23.5 -173.5v-21h-210v-7q0 -113 26 -217t78 -195t139 -156.5t200 -91.5q14 -3 54 -8q1 -3 8 -22t9 -25.5l7.5 -24t7.5 -27.5t5.5 -25t4.5 -27.5t1 -25.5q0 -71 -45.5 -113.5t-119.5 -42.5q-45 0 -99 8l-14 -82
q49 -7 123 -7q98 0 163.5 57t75.5 153q9 88 -33 200q29 0 56 3q156 15 295 92l-56 107q-156 -89 -306 -89q-99 0 -180 36.5t-134.5 100.5t-87 143.5t-45.5 171.5h85q11 -75 37.5 -138.5t69.5 -116.5t108.5 -83t146.5 -30q89 0 169.5 32.5t169.5 91.5z" />
    <glyph glyph-name="egrave" unicode="&#xe8;" horiz-adv-x="1277" 
d="M494 282h633v-282h-927v1498h913v-282h-619v-175h-84v259h619v114h-745v-1330h759v114h-633v729h680v-282h-470v84h386v114h-512v-561zM641 1990l259 -366h-307l-260 366h103l200 -282h102l-200 282h103z" />
    <glyph glyph-name="eacute" unicode="&#xe9;" horiz-adv-x="1277" 
d="M494 282h633v-282h-927v1498h913v-282h-619v-175h-84v259h619v114h-745v-1330h759v114h-633v729h680v-282h-470v84h386v114h-512v-561zM429 1624l259 366h103l-200 -282h102l200 282h103l-260 -366h-307z" />
    <glyph glyph-name="ecircumflex" unicode="&#xea;" horiz-adv-x="1277" 
d="M494 282h633v-282h-927v1498h913v-282h-619v-175h-84v259h619v114h-745v-1330h759v114h-633v729h680v-282h-470v84h386v114h-512v-561zM769 1624l-218 276l-151 -192h104l48 60l53 -68l-60 -76h-319l290 367h70l224 -283h105l-224 283h107l291 -367h-320z" />
    <glyph glyph-name="edieresis" unicode="&#xeb;" horiz-adv-x="1277" 
d="M494 282h633v-282h-927v1498h913v-282h-619v-175h-84v259h619v114h-745v-1330h759v114h-633v729h680v-282h-470v84h386v114h-512v-561zM392 1615q-39 19 -63 56.5t-24 83.5q0 64 45 109t109 45t109.5 -45t45.5 -109q0 -46 -24 -83.5t-64 -56.5l-37 76q41 19 41 64
q0 29 -21 49.5t-50 20.5t-49.5 -20.5t-20.5 -49.5q0 -45 41 -64zM811 1615q-40 19 -64 56.5t-24 83.5q0 64 45.5 109t109.5 45t109.5 -45t45.5 -109q0 -46 -24 -83.5t-64 -56.5l-37 76q41 19 41 64q0 29 -21 49.5t-50 20.5t-50 -20.5t-21 -49.5q0 -45 41 -64z" />
    <glyph glyph-name="igrave" unicode="&#xec;" horiz-adv-x="744" 
d="M519 1216h-210v-1132h126v1018h84v-1102h-294v1300h210v114h-210v84h294v-282zM396 1990l259 -366h-307l-260 366h103l200 -282h102l-200 282h103z" />
    <glyph glyph-name="iacute" unicode="&#xed;" horiz-adv-x="744" 
d="M519 1216h-210v-1132h126v1018h84v-1102h-294v1300h210v114h-210v84h294v-282zM88 1624l259 366h103l-200 -282h102l200 282h103l-260 -366h-307z" />
    <glyph glyph-name="icircumflex" unicode="&#xee;" horiz-adv-x="744" 
d="M519 1216h-210v-1132h126v1018h84v-1102h-294v1300h210v114h-210v84h294v-282zM484 1624l-218 276l-151 -192h104l48 60l53 -68l-60 -76h-319l290 367h70l224 -283h105l-224 283h107l291 -367h-320z" />
    <glyph glyph-name="idieresis" unicode="&#xef;" horiz-adv-x="744" 
d="M519 1216h-210v-1132h126v1018h84v-1102h-294v1300h210v114h-210v84h294v-282zM95 1615q-39 19 -63 56.5t-24 83.5q0 64 45 109t109 45t109.5 -45t45.5 -109q0 -46 -24 -83.5t-64 -56.5l-37 76q41 19 41 64q0 29 -21 49.5t-50 20.5t-49.5 -20.5t-20.5 -49.5q0 -45 41 -64
zM514 1615q-40 19 -64 56.5t-24 83.5q0 64 45.5 109t109.5 45t109.5 -45t45.5 -109q0 -46 -24 -83.5t-64 -56.5l-37 76q41 19 41 64q0 29 -21 49.5t-50 20.5t-50 -20.5t-21 -49.5q0 -45 41 -64z" />
    <glyph glyph-name="eth" unicode="&#xf0;" horiz-adv-x="1546" 
d="M751 1498q307 0 488.5 -196.5t181.5 -551.5q0 -338 -188.5 -544t-495.5 -206h-458v647h-204v273h204v380h472q216 0 338 -145.5t122 -404.5q0 -248 -127 -400t-334 -152h-261v533h222v105h-222v266h84v-182h222v-273h-222v-365h177q171 0 274 128.5t103 339.5
q0 225 -98.5 345.5t-277.5 120.5h-388v-380h-204v-105h204v-647h374q273 0 436.5 181.5t163.5 484.5q0 322 -162 498q-154 166 -424 166h-472v84h472z" />
    <glyph glyph-name="ntilde" unicode="&#xf1;" horiz-adv-x="1594" 
d="M1100 518v980h294v-1498h-325l-785 1331v-1247h126v791l84 -143v-732h-294v1498h83l834 -1414h193v1330h-126v-1205l-759 1289h98zM469 1770q-32 -21 -63 -71l-72 44q53 86 143.5 132t193.5 46q58 0 144 -28q9 -3 27 -9.5l27.5 -10t24 -6.5t27.5 -3q37 0 69 17t51 44
l220 -130q-56 -86 -146.5 -132.5t-193.5 -46.5q-68 0 -126 20q-12 4 -32.5 12l-33 12.5t-29 8.5t-29.5 4q-37 0 -69 -17t-51 -44l-75 45q7 9 15 17l14.5 14.5t13 11.5t11 9t8.5 6.5t6 4.5l2 1q58 36 125 36q44 0 116 -28q12 -5 34 -13q50 -16 100 -16q122 0 210 74l-78 47
q-60 -41 -132 -41q-41 0 -109 24q-10 4 -24 9q-72 24 -117 24q-116 0 -202 -67z" />
    <glyph glyph-name="ograve" unicode="&#xf2;" 
d="M951 1499q154 -40 266 -149.5t168 -264t56 -335.5q0 -158 -44.5 -297.5t-126.5 -245t-208 -167t-279 -61.5t-279 61.5t-208 167t-126.5 245t-44.5 297.5t44.5 297.5t126.5 245t208 166.5t279 61q14 0 42 -2v-198q100 -9 180 -62.5t128 -134.5t73 -176.5t25 -196.5
q0 -85 -16.5 -166t-52.5 -155t-87.5 -130t-127 -89t-164.5 -33t-164.5 33t-127 89t-87.5 130t-52.5 155t-16.5 166q0 113 29.5 217t94 191.5t156.5 128.5v-95q-98 -61 -147 -185.5t-49 -256.5q0 -66 12 -131.5t39.5 -131t68.5 -115t104 -80.5t140 -31t140 31t104 80.5
t68.5 115t39.5 131t12 131.5t-12 131.5t-40 130.5t-68.5 114.5t-103.5 80.5t-140 31q-23 0 -42 -3v200q-107 -7 -196 -49t-150.5 -108t-104 -152t-62 -180.5t-19.5 -195.5q0 -105 21 -203t67 -186.5t112.5 -154.5t162.5 -104.5t211 -38.5t211 38.5t162.5 104.5t112.5 154.5
t67 186.5t21 203q0 149 -42 281t-136 236.5t-228 144.5v87zM709 1990l259 -366h-307l-260 366h103l200 -282h102l-200 282h103z" />
    <glyph glyph-name="oacute" unicode="&#xf3;" 
d="M951 1499q154 -40 266 -149.5t168 -264t56 -335.5q0 -158 -44.5 -297.5t-126.5 -245t-208 -167t-279 -61.5t-279 61.5t-208 167t-126.5 245t-44.5 297.5t44.5 297.5t126.5 245t208 166.5t279 61q14 0 42 -2v-198q100 -9 180 -62.5t128 -134.5t73 -176.5t25 -196.5
q0 -85 -16.5 -166t-52.5 -155t-87.5 -130t-127 -89t-164.5 -33t-164.5 33t-127 89t-87.5 130t-52.5 155t-16.5 166q0 113 29.5 217t94 191.5t156.5 128.5v-95q-98 -61 -147 -185.5t-49 -256.5q0 -66 12 -131.5t39.5 -131t68.5 -115t104 -80.5t140 -31t140 31t104 80.5
t68.5 115t39.5 131t12 131.5t-12 131.5t-40 130.5t-68.5 114.5t-103.5 80.5t-140 31q-23 0 -42 -3v200q-107 -7 -196 -49t-150.5 -108t-104 -152t-62 -180.5t-19.5 -195.5q0 -105 21 -203t67 -186.5t112.5 -154.5t162.5 -104.5t211 -38.5t211 38.5t162.5 104.5t112.5 154.5
t67 186.5t21 203q0 149 -42 281t-136 236.5t-228 144.5v87zM605 1624l259 366h103l-200 -282h102l200 282h103l-260 -366h-307z" />
    <glyph glyph-name="ocircumflex" unicode="&#xf4;" 
d="M951 1499q154 -40 266 -149.5t168 -264t56 -335.5q0 -158 -44.5 -297.5t-126.5 -245t-208 -167t-279 -61.5t-279 61.5t-208 167t-126.5 245t-44.5 297.5t44.5 297.5t126.5 245t208 166.5t279 61q14 0 42 -2v-198q100 -9 180 -62.5t128 -134.5t73 -176.5t25 -196.5
q0 -85 -16.5 -166t-52.5 -155t-87.5 -130t-127 -89t-164.5 -33t-164.5 33t-127 89t-87.5 130t-52.5 155t-16.5 166q0 113 29.5 217t94 191.5t156.5 128.5v-95q-98 -61 -147 -185.5t-49 -256.5q0 -66 12 -131.5t39.5 -131t68.5 -115t104 -80.5t140 -31t140 31t104 80.5
t68.5 115t39.5 131t12 131.5t-12 131.5t-40 130.5t-68.5 114.5t-103.5 80.5t-140 31q-23 0 -42 -3v200q-107 -7 -196 -49t-150.5 -108t-104 -152t-62 -180.5t-19.5 -195.5q0 -105 21 -203t67 -186.5t112.5 -154.5t162.5 -104.5t211 -38.5t211 38.5t162.5 104.5t112.5 154.5
t67 186.5t21 203q0 149 -42 281t-136 236.5t-228 144.5v87zM894 1624l-218 276l-151 -192h104l48 60l53 -68l-60 -76h-319l290 367h70l224 -283h105l-224 283h107l291 -367h-320z" />
    <glyph glyph-name="otilde" unicode="&#xf5;" 
d="M951 1499q154 -40 266 -149.5t168 -264t56 -335.5q0 -158 -44.5 -297.5t-126.5 -245t-208 -167t-279 -61.5t-279 61.5t-208 167t-126.5 245t-44.5 297.5t44.5 297.5t126.5 245t208 166.5t279 61q14 0 42 -2v-198q100 -9 180 -62.5t128 -134.5t73 -176.5t25 -196.5
q0 -85 -16.5 -166t-52.5 -155t-87.5 -130t-127 -89t-164.5 -33t-164.5 33t-127 89t-87.5 130t-52.5 155t-16.5 166q0 113 29.5 217t94 191.5t156.5 128.5v-95q-98 -61 -147 -185.5t-49 -256.5q0 -66 12 -131.5t39.5 -131t68.5 -115t104 -80.5t140 -31t140 31t104 80.5
t68.5 115t39.5 131t12 131.5t-12 131.5t-40 130.5t-68.5 114.5t-103.5 80.5t-140 31q-23 0 -42 -3v200q-107 -7 -196 -49t-150.5 -108t-104 -152t-62 -180.5t-19.5 -195.5q0 -105 21 -203t67 -186.5t112.5 -154.5t162.5 -104.5t211 -38.5t211 38.5t162.5 104.5t112.5 154.5
t67 186.5t21 203q0 149 -42 281t-136 236.5t-228 144.5v87zM455 1770q-32 -21 -63 -71l-72 44q53 86 143.5 132t193.5 46q58 0 144 -28q9 -3 27 -9.5l27.5 -10t24 -6.5t27.5 -3q37 0 69 17t51 44l220 -130q-56 -86 -146.5 -132.5t-193.5 -46.5q-68 0 -126 20q-12 4 -32.5 12
l-33 12.5t-29 8.5t-29.5 4q-37 0 -69 -17t-51 -44l-75 45q7 9 15 17l14.5 14.5t13 11.5t11 9t8.5 6.5t6 4.5l2 1q58 36 125 36q44 0 116 -28q12 -5 34 -13q50 -16 100 -16q122 0 210 74l-78 47q-60 -41 -132 -41q-41 0 -109 24q-10 4 -24 9q-72 24 -117 24q-116 0 -202 -67z
" />
    <glyph glyph-name="odieresis" unicode="&#xf6;" 
d="M951 1499q154 -40 266 -149.5t168 -264t56 -335.5q0 -158 -44.5 -297.5t-126.5 -245t-208 -167t-279 -61.5t-279 61.5t-208 167t-126.5 245t-44.5 297.5t44.5 297.5t126.5 245t208 166.5t279 61q14 0 42 -2v-198q100 -9 180 -62.5t128 -134.5t73 -176.5t25 -196.5
q0 -85 -16.5 -166t-52.5 -155t-87.5 -130t-127 -89t-164.5 -33t-164.5 33t-127 89t-87.5 130t-52.5 155t-16.5 166q0 113 29.5 217t94 191.5t156.5 128.5v-95q-98 -61 -147 -185.5t-49 -256.5q0 -66 12 -131.5t39.5 -131t68.5 -115t104 -80.5t140 -31t140 31t104 80.5
t68.5 115t39.5 131t12 131.5t-12 131.5t-40 130.5t-68.5 114.5t-103.5 80.5t-140 31q-23 0 -42 -3v200q-107 -7 -196 -49t-150.5 -108t-104 -152t-62 -180.5t-19.5 -195.5q0 -105 21 -203t67 -186.5t112.5 -154.5t162.5 -104.5t211 -38.5t211 38.5t162.5 104.5t112.5 154.5
t67 186.5t21 203q0 149 -42 281t-136 236.5t-228 144.5v87zM506 1615q-39 19 -63 56.5t-24 83.5q0 64 45 109t109 45t109.5 -45t45.5 -109q0 -46 -24 -83.5t-64 -56.5l-37 76q41 19 41 64q0 29 -21 49.5t-50 20.5t-49.5 -20.5t-20.5 -49.5q0 -45 41 -64zM925 1615
q-40 19 -64 56.5t-24 83.5q0 64 45.5 109t109.5 45t109.5 -45t45.5 -109q0 -46 -24 -83.5t-64 -56.5l-37 76q41 19 41 64q0 29 -21 49.5t-50 20.5t-50 -20.5t-21 -49.5q0 -45 41 -64z" />
    <glyph glyph-name="oslash" unicode="&#xf8;" 
d="M1524 1413l-188 -223q105 -192 105 -441q0 -158 -44.5 -297.5t-126.5 -245t-208 -166.5t-279 -61q-213 0 -367 113l-159 -188l-215 181l187 223q-104 193 -104 441q0 158 44.5 297.5t126.5 245t208 167t279 61.5q28 0 42 -1v-200q100 -9 180 -62t128 -134t73 -177
t25 -197q0 -85 -17 -166t-53 -155t-87.5 -129.5t-126.5 -88.5t-164 -33q-111 0 -199 50t-141 133t-80.5 182.5t-27.5 206.5q0 113 29.5 217.5t94 192t156.5 128.5v-96q-98 -60 -147 -184.5t-49 -257.5q0 -66 12 -131.5t39.5 -130.5t68.5 -114.5t104 -80.5t140 -31t140 31
t103.5 80.5t68.5 114.5t40 130.5t12 131.5t-12 131.5t-40 131t-68.5 115t-103.5 80.5t-140 31q-3 0 -42 -3v200q-107 -7 -196 -49.5t-150.5 -108t-104 -152t-62 -181t-19.5 -195.5q0 -265 123 -449l-172 -205l87 -73l158 188q150 -147 378 -147q115 0 211 38.5t162.5 104.5
t112.5 154t67 186t21 203q0 263 -123 450l172 204l-88 73l-158 -189q-87 88 -209 125v87q107 -27 199 -93l158 188z" />
    <glyph glyph-name="ugrave" unicode="&#xf9;" horiz-adv-x="1539" 
d="M1045 1498h294v-917q0 -131 -35 -239.5t-103.5 -190t-178.5 -127t-252 -45.5q-28 0 -42 1v199q-44 3 -84.5 14t-84.5 40t-75.5 71.5t-52.5 114t-21 162.5v833h-126v-833q0 -59 7.5 -114t29 -116.5t55.5 -110.5t92 -91.5t134 -64.5v-87q-199 50 -300.5 204.5t-101.5 379.5
v917h294v-917q0 -320 276 -320q14 0 42 2v-199q80 5 145.5 26.5t110.5 53.5t79.5 75.5t54.5 88t32.5 95.5t16.5 92.5t4 85.5v833h-126v-833q0 -285 -191 -371v96q107 76 107 275v917zM691 1990l259 -366h-307l-260 366h103l200 -282h102l-200 282h103z" />
    <glyph glyph-name="uacute" unicode="&#xfa;" horiz-adv-x="1539" 
d="M1045 1498h294v-917q0 -131 -35 -239.5t-103.5 -190t-178.5 -127t-252 -45.5q-28 0 -42 1v199q-44 3 -84.5 14t-84.5 40t-75.5 71.5t-52.5 114t-21 162.5v833h-126v-833q0 -59 7.5 -114t29 -116.5t55.5 -110.5t92 -91.5t134 -64.5v-87q-199 50 -300.5 204.5t-101.5 379.5
v917h294v-917q0 -320 276 -320q14 0 42 2v-199q80 5 145.5 26.5t110.5 53.5t79.5 75.5t54.5 88t32.5 95.5t16.5 92.5t4 85.5v833h-126v-833q0 -285 -191 -371v96q107 76 107 275v917zM598 1624l259 366h103l-200 -282h102l200 282h103l-260 -366h-307z" />
    <glyph glyph-name="ucircumflex" unicode="&#xfb;" horiz-adv-x="1539" 
d="M1045 1498h294v-917q0 -131 -35 -239.5t-103.5 -190t-178.5 -127t-252 -45.5q-28 0 -42 1v199q-44 3 -84.5 14t-84.5 40t-75.5 71.5t-52.5 114t-21 162.5v833h-126v-833q0 -59 7.5 -114t29 -116.5t55.5 -110.5t92 -91.5t134 -64.5v-87q-199 50 -300.5 204.5t-101.5 379.5
v917h294v-917q0 -320 276 -320q14 0 42 2v-199q80 5 145.5 26.5t110.5 53.5t79.5 75.5t54.5 88t32.5 95.5t16.5 92.5t4 85.5v833h-126v-833q0 -285 -191 -371v96q107 76 107 275v917zM881 1624l-218 276l-151 -192h104l48 60l53 -68l-60 -76h-319l290 367h70l224 -283h105
l-224 283h107l291 -367h-320z" />
    <glyph glyph-name="udieresis" unicode="&#xfc;" horiz-adv-x="1539" 
d="M1045 1498h294v-917q0 -131 -35 -239.5t-103.5 -190t-178.5 -127t-252 -45.5q-28 0 -42 1v199q-44 3 -84.5 14t-84.5 40t-75.5 71.5t-52.5 114t-21 162.5v833h-126v-833q0 -59 7.5 -114t29 -116.5t55.5 -110.5t92 -91.5t134 -64.5v-87q-199 50 -300.5 204.5t-101.5 379.5
v917h294v-917q0 -320 276 -320q14 0 42 2v-199q80 5 145.5 26.5t110.5 53.5t79.5 75.5t54.5 88t32.5 95.5t16.5 92.5t4 85.5v833h-126v-833q0 -285 -191 -371v96q107 76 107 275v917zM492 1615q-39 19 -63 56.5t-24 83.5q0 64 45 109t109 45t109.5 -45t45.5 -109
q0 -46 -24 -83.5t-64 -56.5l-37 76q41 19 41 64q0 29 -21 49.5t-50 20.5t-49.5 -20.5t-20.5 -49.5q0 -45 41 -64zM911 1615q-40 19 -64 56.5t-24 83.5q0 64 45.5 109t109.5 45t109.5 -45t45.5 -109q0 -46 -24 -83.5t-64 -56.5l-37 76q41 19 41 64q0 29 -21 49.5t-50 20.5
t-50 -20.5t-21 -49.5q0 -45 41 -64z" />
    <glyph glyph-name="yacute" unicode="&#xfd;" horiz-adv-x="1360" 
d="M979 1498h332l-484 -885v-613h-294v448h84v-364h126v551l426 779h-140l-466 -852l-514 936h332l229 -420l-48 -87l-231 423h-140l372 -677zM471 1624l259 366h103l-200 -282h102l200 282h103l-260 -366h-307z" />
    <glyph glyph-name="thorn" unicode="&#xfe;" horiz-adv-x="1336" 
d="M679 1301q112 0 202.5 -30t151 -80t101.5 -118.5t59 -144t18 -157.5q0 -108 -33 -204.5t-94 -170.5t-156 -117t-212 -43h-222v-236h-294v320h84v-236h126v236h306q103 0 183.5 38.5t129 103t73.5 143.5t25 166q0 191 -102 310q-116 136 -346 136h-269v197h-126v-896h409
q62 0 107 21.5t69.5 59t36 80t11.5 92.5q0 110 -55 179t-155 69h-213v-387h-84v471h297q131 0 212.5 -92t81.5 -240q0 -156 -82.5 -246.5t-225.5 -90.5h-493v1064h294v-197h185z" />
    <glyph glyph-name="ydieresis" unicode="&#xff;" horiz-adv-x="1360" 
d="M979 1498h332l-484 -885v-613h-294v448h84v-364h126v551l426 779h-140l-466 -852l-514 936h332l229 -420l-48 -87l-231 423h-140l372 -677zM403 1615q-39 19 -63 56.5t-24 83.5q0 64 45 109t109 45t109.5 -45t45.5 -109q0 -46 -24 -83.5t-64 -56.5l-37 76q41 19 41 64
q0 29 -21 49.5t-50 20.5t-49.5 -20.5t-20.5 -49.5q0 -45 41 -64zM822 1615q-40 19 -64 56.5t-24 83.5q0 64 45.5 109t109.5 45t109.5 -45t45.5 -109q0 -46 -24 -83.5t-64 -56.5l-37 76q41 19 41 64q0 29 -21 49.5t-50 20.5t-50 -20.5t-21 -49.5q0 -45 41 -64z" />
    <glyph glyph-name="Aogonek" unicode="&#x104;" horiz-adv-x="1482" 
d="M1465 -157l44 -249q-5 -1 -25 -5.5t-32.5 -7t-37 -5.5t-55.5 -4.5t-70 -1.5q-130 0 -220 78t-103 206q-12 114 47 263q0 1 5.5 14l15 35.5l17.5 42.5l-60 164h-717l-105 -289h127l64 175h89l-94 -259h-306l166 457h835l91 -250q-10 -22 -20.5 -47.5t-18 -45.5l-14 -37
l-10.5 -27l-4 -10q-32 -102 -25 -177q9 -94 75 -151.5t165 -57.5q79 0 123 6l-15 82q-47 -7 -98 -7q-97 0 -140 65q-52 76 7 235q2 8 18 49h129l-484 1330h-176l-276 -759h512l-148 407l-107 -293h-89l196 539l268 -737h-752l337 927h294l545 -1498h-191
q-15 -42 -20.5 -72.5t-2 -56.5t23.5 -39t56 -13q22 0 40 1t36.5 4t28.5 5t31.5 7t29.5 7z" />
    <glyph glyph-name="Dcroat" unicode="&#x110;" horiz-adv-x="1546" 
d="M751 1498q307 0 488.5 -196.5t181.5 -551.5q0 -338 -188.5 -544t-495.5 -206h-458v647h-204v273h204v380h472q216 0 338 -145.5t122 -404.5q0 -248 -127 -400t-334 -152h-261v533h222v105h-222v266h84v-182h222v-273h-222v-365h177q171 0 274 128.5t103 339.5
q0 225 -98.5 345.5t-277.5 120.5h-388v-380h-204v-105h204v-647h374q273 0 436.5 181.5t163.5 484.5q0 322 -162 498q-154 166 -424 166h-472v84h472z" />
    <glyph glyph-name="Eogonek" unicode="&#x118;" horiz-adv-x="1276" 
d="M1126 0h-270q-15 -42 -20.5 -72.5t-2 -56.5t23.5 -39t56 -13q27 0 52 2.5t38 5t39.5 8.5t36.5 8l44 -249q-6 -1 -32.5 -7t-43.5 -8.5t-56.5 -5.5t-87.5 -3q-130 0 -219.5 77.5t-102.5 206.5q-7 65 10 146h-391v1498h912v-282h-618v-174h-84v258h618v114h-744v-1330h418
l-6 -20l-6.5 -21t-2.5 -9q-30 -98 -23 -171q11 -95 75.5 -152t163.5 -57q67 0 123 6l-14 83q-43 -8 -99 -8q-98 0 -139 65q-20 29 -24.5 67.5t3.5 76t25 86.5l21 54h243v114h-632v730h679v-282h-469v84h385v114h-511v-562h632v-282z" />
    <glyph glyph-name="Lslash" unicode="&#x141;" horiz-adv-x="1157" 
d="M337 282h745v-282h-829v84h745v114h-745v447l-178 -55v277l178 55v576h294v-486l230 71v-277l-230 -71v-340h-84v402l230 71v101l-230 -70v515h-126v-554l-178 -55v-101l178 54v-476z" />
    <glyph glyph-name="lslash" unicode="&#x142;" horiz-adv-x="1157" 
d="M337 282h745v-282h-829v84h745v114h-745v447l-178 -55v277l178 55v576h294v-486l230 71v-277l-230 -71v-340h-84v402l230 71v101l-230 -70v515h-126v-554l-178 -55v-101l178 54v-476z" />
    <glyph glyph-name="OE" unicode="&#x152;" horiz-adv-x="2128" 
d="M1389 282h589v-282h-883v64q-132 -85 -312 -85q-154 0 -280 61.5t-207.5 167t-126 245t-44.5 297.5q0 126 27.5 241t83 211.5t133.5 167.5t184 110.5t230 39.5q180 0 312 -85v63h869v-282h-575v-175h-84v259h575v114h-701v-177q-135 199 -396 199q-115 0 -211.5 -38.5
t-162.5 -104.5t-112 -154.5t-67 -186.5t-21 -202q0 -105 21 -203t67 -186.5t112 -154.5t162.5 -104.5t211.5 -38.5q259 0 396 199v-178h715v114h-589v532h552v114h-765q-31 394 -309 394q-77 0 -140 -31t-104 -80.5t-68.5 -114.5t-39.5 -130.5t-12 -131.5q0 -84 20 -166
t61 -156.5t114.5 -120.5t168.5 -46q62 0 112 20t83 56t56.5 80t36 99.5t18 106t6.5 107.5h84q-1 -99 -16.5 -181.5t-39 -138.5t-57 -99t-68 -68t-74.5 -40.5t-73 -20.5t-68 -5q-89 0 -164.5 33t-127 89t-87.5 130t-52.5 155t-16.5 166q0 106 27.5 205.5t80.5 183t141 133.5
t199 50q44 0 84.5 -8t90 -33.5t88.5 -67t72.5 -115t48.5 -170.5h774v-282h-552v-364z" />
    <glyph glyph-name="oe" unicode="&#x153;" horiz-adv-x="2128" 
d="M1389 282h589v-282h-883v64q-132 -85 -312 -85q-154 0 -280 61.5t-207.5 167t-126 245t-44.5 297.5q0 126 27.5 241t83 211.5t133.5 167.5t184 110.5t230 39.5q180 0 312 -85v63h869v-282h-575v-175h-84v259h575v114h-701v-177q-135 199 -396 199q-115 0 -211.5 -38.5
t-162.5 -104.5t-112 -154.5t-67 -186.5t-21 -202q0 -105 21 -203t67 -186.5t112 -154.5t162.5 -104.5t211.5 -38.5q259 0 396 199v-178h715v114h-589v532h552v114h-765q-31 394 -309 394q-77 0 -140 -31t-104 -80.5t-68.5 -114.5t-39.5 -130.5t-12 -131.5q0 -84 20 -166
t61 -156.5t114.5 -120.5t168.5 -46q62 0 112 20t83 56t56.5 80t36 99.5t18 106t6.5 107.5h84q-1 -99 -16.5 -181.5t-39 -138.5t-57 -99t-68 -68t-74.5 -40.5t-73 -20.5t-68 -5q-89 0 -164.5 33t-127 89t-87.5 130t-52.5 155t-16.5 166q0 106 27.5 205.5t80.5 183t141 133.5
t199 50q44 0 84.5 -8t90 -33.5t88.5 -67t72.5 -115t48.5 -170.5h774v-282h-552v-364z" />
    <glyph glyph-name="Scaron" unicode="&#x160;" horiz-adv-x="1257" 
d="M729 975q200 -81 301.5 -216t101.5 -338q0 -142 -71 -243t-192.5 -150t-282.5 -49q-265 0 -522 139l102 271q244 -128 420 -128q252 0 252 160q0 28 -4.5 54t-9.5 46t-18 40.5l-21 33.5t-28 30l-29.5 25t-35 23.5t-34.5 20.5l-38.5 21t-37.5 20q-47 25 -75 42.5t-65 48
t-57.5 62t-35.5 79t-15 104.5q0 107 77 179t233 72q143 0 300 -66l42 115q-77 35 -146.5 50t-196.5 15q-122 0 -219 -40t-156.5 -124t-59.5 -202q0 -288 276 -414l-29 -79q-331 149 -331 493q0 108 42 195.5t114 142t165 83.5t198 29q84 0 148 -6.5t118.5 -23.5t88.5 -32
t93 -45l-100 -272q-188 97 -347 97q-111 0 -168.5 -43.5t-57.5 -123.5q0 -37 6.5 -68t23.5 -56.5t31 -42t44.5 -37t46.5 -29.5l54 -30q117 -63 158 -95q128 -98 139 -257q1 -17 1 -35q0 -32 -6.5 -61t-28 -64t-56.5 -60t-98 -42t-147 -17q-168 0 -374 96l-43 -114
q202 -96 417 -96q73 0 138 11t125.5 38t103.5 67t69 102t26 140q0 170 -84 285.5t-263 189.5zM540 1714l218 276h320l-291 -367h-107l224 283h-105l-224 -283h-70l-290 367h319l60 -76l-53 -68l-48 60h-104z" />
    <glyph glyph-name="scaron" unicode="&#x161;" horiz-adv-x="1257" 
d="M729 975q200 -81 301.5 -216t101.5 -338q0 -142 -71 -243t-192.5 -150t-282.5 -49q-265 0 -522 139l102 271q244 -128 420 -128q252 0 252 160q0 28 -4.5 54t-9.5 46t-18 40.5l-21 33.5t-28 30l-29.5 25t-35 23.5t-34.5 20.5l-38.5 21t-37.5 20q-47 25 -75 42.5t-65 48
t-57.5 62t-35.5 79t-15 104.5q0 107 77 179t233 72q143 0 300 -66l42 115q-77 35 -146.5 50t-196.5 15q-122 0 -219 -40t-156.5 -124t-59.5 -202q0 -288 276 -414l-29 -79q-331 149 -331 493q0 108 42 195.5t114 142t165 83.5t198 29q84 0 148 -6.5t118.5 -23.5t88.5 -32
t93 -45l-100 -272q-188 97 -347 97q-111 0 -168.5 -43.5t-57.5 -123.5q0 -37 6.5 -68t23.5 -56.5t31 -42t44.5 -37t46.5 -29.5l54 -30q117 -63 158 -95q128 -98 139 -257q1 -17 1 -35q0 -32 -6.5 -61t-28 -64t-56.5 -60t-98 -42t-147 -17q-168 0 -374 96l-43 -114
q202 -96 417 -96q216 0 341 94q121 92 121 264q0 170 -84 285.5t-263 189.5zM540 1714l218 276h320l-291 -367h-107l224 283h-105l-224 -283h-70l-290 367h319l60 -76l-53 -68l-48 60h-104z" />
    <glyph glyph-name="Ydieresis" unicode="&#x178;" horiz-adv-x="1360" 
d="M979 1498h332l-484 -885v-613h-294v448h84v-364h126v551l426 779h-140l-466 -852l-514 936h332l229 -420l-48 -87l-231 423h-140l372 -677zM403 1615q-39 19 -63 56.5t-24 83.5q0 64 45 109t109 45t109.5 -45t45.5 -109q0 -46 -24 -83.5t-64 -56.5l-37 76q41 19 41 64
q0 29 -21 49.5t-50 20.5t-49.5 -20.5t-20.5 -49.5q0 -45 41 -64zM822 1615q-40 19 -64 56.5t-24 83.5q0 64 45.5 109t109.5 45t109.5 -45t45.5 -109q0 -46 -24 -83.5t-64 -56.5l-37 76q41 19 41 64q0 29 -21 49.5t-50 20.5t-50 -20.5t-21 -49.5q0 -45 41 -64z" />
    <glyph glyph-name="Zcaron" unicode="&#x17d;" horiz-adv-x="1348" 
d="M513 282h710v-282h-1098v225l601 878h102l-619 -904v-115h930v114h-785l696 1018h-863v282h1023v-84h-939v-114h938zM594 1714l218 276h320l-291 -367h-107l224 283h-105l-224 -283h-70l-290 367h319l60 -76l-53 -68l-48 60h-104z" />
    <glyph glyph-name="zcaron" unicode="&#x17e;" horiz-adv-x="1348" 
d="M513 282h710v-282h-1098v225l601 878h102l-619 -904v-115h930v114h-785l696 1018h-863v282h1023v-84h-939v-114h938zM594 1714l218 276h320l-291 -367h-107l224 283h-105l-224 -283h-70l-290 367h319l60 -76l-53 -68l-48 60h-104z" />
    <glyph glyph-name="circumflex" unicode="&#x2c6;" horiz-adv-x="1439" 
d="M831 1624l-218 276l-151 -192h104l48 60l53 -68l-60 -76h-319l290 367h70l224 -283h105l-224 283h107l291 -367h-320z" />
    <glyph glyph-name="caron" unicode="&#x2c7;" horiz-adv-x="1423" 
d="M605 1714l218 276h320l-291 -367h-107l224 283h-105l-224 -283h-70l-290 367h319l60 -76l-53 -68l-48 60h-104z" />
    <glyph glyph-name="dotaccent" unicode="&#x2d9;" horiz-adv-x="919" 
d="M392 1616q-39 19 -63 56t-24 83q0 64 45 109t109 45t109.5 -45t45.5 -109q0 -46 -24 -83.5t-64 -56.5l-37 76q41 19 41 64q0 29 -21 49.5t-50 20.5t-49.5 -20.5t-20.5 -49.5q0 -45 41 -64z" />
    <glyph glyph-name="tilde" unicode="&#x2dc;" horiz-adv-x="1439" 
d="M392 1770q-32 -21 -63 -71l-72 44q53 86 143.5 132t193.5 46q58 0 144 -28q9 -3 27 -9.5l27.5 -10t24 -6.5t27.5 -3q37 0 69 17t51 44l220 -130q-56 -86 -146.5 -132.5t-193.5 -46.5q-68 0 -126 20q-12 4 -32.5 12l-33 12.5t-29 8.5t-29.5 4q-37 0 -69 -17t-51 -44
l-75 45q7 9 15 17l14.5 14.5t13 11.5t11 9t8.5 6.5t6 4.5l2 1q58 36 125 36q44 0 116 -28q12 -5 34 -13q50 -16 100 -16q122 0 210 74l-78 47q-60 -41 -132 -41q-41 0 -109 24l-24 9q-72 24 -117 24q-116 0 -202 -67z" />
    <glyph glyph-name="hungarumlaut" unicode="&#x2dd;" horiz-adv-x="1439" 
d="M861 1990l-259 -366h-309l260 366h103l-200 -282h102l200 282h103zM1029 1624h-307l259 366h103l-200 -282h102l200 282h103z" />
    <glyph glyph-name="uni0401" unicode="&#x401;" horiz-adv-x="1277" 
d="M494 282h633v-282h-927v1498h913v-282h-619v-175h-84v259h619v114h-745v-1330h759v114h-633v729h680v-282h-470v84h386v114h-512v-561zM392 1616q-39 19 -63 56t-24 83q0 64 45 109t109 45t109.5 -45t45.5 -109q0 -46 -24 -83t-64 -56l-37 75q41 19 41 64q0 29 -21 49.5
t-50 20.5t-49.5 -20.5t-20.5 -49.5q0 -45 41 -64zM811 1616q-40 19 -64 56t-24 83q0 64 45.5 109t109.5 45t109.5 -45t45.5 -109q0 -46 -24 -83t-64 -56l-37 75q41 19 41 64q0 29 -21 49.5t-50 20.5t-50 -20.5t-21 -49.5q0 -45 41 -64z" />
    <glyph glyph-name="uni0404" unicode="&#x404;" horiz-adv-x="1346" 
d="M125 730h700v114h-698q19 200 96 350.5t217 238t328 87.5q138 0 241 -36t214 -112l-139 -251q-38 26 -62 40t-68 35t-94 31.5t-106 10.5q-98 0 -164 -50t-113 -146h-92q116 280 369 280q157 0 300 -82l58 104q-78 47 -158 69.5t-186 22.5q-228 0 -364.5 -137.5
t-180.5 -370.5h686v-282h-696q10 -129 49.5 -234t108.5 -183.5t173.5 -122t237.5 -43.5q200 0 378 102l-58 106q-173 -94 -333 -94q-156 0 -265 95t-147 260h87q32 -122 114 -196.5t211 -74.5q96 0 183 33.5t182 93.5l138 -252q-234 -157 -490 -157q-164 0 -291.5 59
t-206 163t-118.5 238t-41 291z" />
    <glyph glyph-name="uni0406" unicode="&#x406;" horiz-adv-x="744" 
d="M519 1216h-210v-1132h126v1018h84v-1102h-294v1300h210v114h-210v84h294v-282z" />
    <glyph glyph-name="uni0407" unicode="&#x407;" horiz-adv-x="744" 
d="M95 1616q-39 19 -63 56t-24 83q0 64 45 109t109 45t109.5 -45t45.5 -109q0 -46 -24 -83t-64 -56l-37 75q41 19 41 64q0 29 -21 49.5t-50 20.5t-49.5 -20.5t-20.5 -49.5q0 -45 41 -64zM514 1616q-40 19 -64 56t-24 83q0 64 45.5 109t109.5 45t109.5 -45t45.5 -109
q0 -46 -24 -83t-64 -56l-37 75q41 19 41 64q0 29 -21 49.5t-50 20.5t-50 -20.5t-21 -49.5q0 -45 41 -64zM519 1216h-210v-1132h126v1018h84v-1102h-294v1300h210v114h-210v84h294v-282z" />
    <glyph glyph-name="uni040E" unicode="&#x40e;" horiz-adv-x="1380" 
d="M545 1757l-181 -54q-26 35 -43 75l249 74q19 -27 51 -44t69 -17t69 17t51 44l250 -74q-50 -112 -150.5 -173.5t-219.5 -61.5q-148 0 -262 91l105 32q72 -39 157 -39q147 0 239 102l-94 28q-63 -50 -145 -50t-145 50zM798 328l-483 1086h-135l447 -989l-16 -33l-25 -50.5
t-33 -54t-46 -56.5t-56 -37t-71 -17q-47 0 -98 14l-32 -108q49 -20 143 -20q71 0 125.5 28.5t91 75t77.5 124.5l44 -93q-36 -65 -78 -110.5t-109.5 -77t-150.5 -31.5q-56 0 -104 8t-73.5 17t-68.5 27l80 269q92 -39 153 -39q82 0 154 167l-484 1070h320l429 -966l401 882
h-136l-264 -595l-46 103l255 576h321z" />
    <glyph glyph-name="uni0410" unicode="&#x410;" horiz-adv-x="1482" 
d="M888 1498l545 -1498h-307l-135 373h-717l-105 -289h127l64 175h89l-94 -259h-306l166 457h835l135 -373h128l-484 1330h-176l-276 -759h512l-148 407l-107 -293h-89l196 539l268 -737h-752l337 927h294z" />
    <glyph glyph-name="uni0411" unicode="&#x411;" horiz-adv-x="1395" 
d="M755 928q239 0 377 -132t138 -332q0 -96 -33.5 -180t-96 -147.5t-160 -100t-216.5 -36.5h-564v730h566q130 0 212 -74t82 -192q0 -119 -81.5 -192.5t-214.5 -73.5h-354v335h84v-251h270q39 0 75 9.5t67.5 29.5t50.5 57t19 86q0 85 -58.5 133.5t-151.5 48.5h-482v-562h480
q193 0 307.5 103.5t114.5 276.5q0 172 -116.5 276t-314.5 104h-555v654h963v-282h-669v-175h-84v259h669v114h-795v-486h471z" />
    <glyph glyph-name="uni0412" unicode="&#x412;" horiz-adv-x="1416" 
d="M1108 820q173 -127 173 -372q0 -191 -135.5 -319.5t-358.5 -128.5h-587v731h567q138 0 221 -76.5t83 -194.5q0 -110 -72 -186t-208 -76h-381v335h84v-251h297q99 0 147.5 50t48.5 128q0 79 -56.5 133t-163.5 54h-483v-563h503q191 0 300.5 105.5t109.5 258.5
q0 258 -227 355q40 32 68.5 64t53.5 96t25 143q0 125 -104 216.5t-276 91.5h-453v-486h452q175 0 175 160q0 62 -51.5 95t-138.5 33h-227v-174h-84v258h311q72 0 127 -18.5t86 -50t46 -67.5t15 -76q0 -117 -70.5 -180.5t-196.5 -63.5h-528v654h537q105 0 194 -33t147 -88
t90.5 -125.5t32.5 -145.5q0 -171 -93 -286z" />
    <glyph glyph-name="uni0413" unicode="&#x413;" horiz-adv-x="1101" 
d="M410 1498h616v-282h-406v84h322v114h-448v-1414h-294v1300h84v-1216h126v1414z" />
    <glyph glyph-name="uni0414" unicode="&#x414;" horiz-adv-x="1640" 
d="M1550 -352h-294v352h-897v-352h-294v634h127q37 47 63.5 91.5t58 117t48.5 172t17 217.5v420h783v-820h126v934h-699v84h783v-1102h-294v820h-615v-336q0 -126 -18.5 -233t-52.5 -186.5t-64 -129.5t-70 -101l-25 -32h-84v-466h126v352h1065v-352h126v466h-1074l70 122
q19 33 37.5 75.5t40.5 111t35.5 163t13.5 198.5v235h84v-235q0 -339 -136 -586h1013v-634z" />
    <glyph glyph-name="uni0415" unicode="&#x415;" horiz-adv-x="1277" 
d="M494 282h633v-282h-927v1498h913v-282h-619v-175h-84v259h619v114h-745v-1330h759v114h-633v729h680v-282h-470v84h386v114h-512v-561z" />
    <glyph glyph-name="uni0416" unicode="&#x416;" horiz-adv-x="2135" 
d="M1394 781l693 -781h-387l-485 548v-548h-294v374l84 94v-384h126v526l70 80l537 -606h162l-618 697l563 633h-156l-1254 -1414h-387l693 781l-637 717h380l437 -493v493h294v-309l-84 -95v320h-126v-462l-75 -84l-484 546h-155l562 -633l-618 -697h162l1254 1414h381z
" />
    <glyph glyph-name="uni0417" unicode="&#x417;" horiz-adv-x="1333" 
d="M1066 731q64 -55 98 -132t34 -163q0 -196 -160 -326.5t-424 -130.5q-181 0 -305.5 44.5t-233.5 120.5l127 248q217 -131 392 -131q214 0 282 95q29 40 29 101q0 42 -17 76h90q11 -38 11 -76q0 -136 -104.5 -208t-290.5 -72q-173 0 -357 99l-53 -103q184 -110 430 -110
q128 0 232 36.5t171 104.5q97 97 97 232q0 124 -82 211h-559v282h510q62 64 62 161q0 153 -121 249.5t-314 96.5q-114 0 -199.5 -22t-163.5 -72l60 -95q129 75 268 75q194 0 284 -90q63 -65 63 -158q0 -22 -2 -32h-85q3 12 3 33q0 70 -61 116.5t-203 46.5q-153 0 -292 -108
l-148 234q104 84 215.5 120t260.5 36q120 0 219 -34.5t164 -94t100.5 -137t35.5 -164.5q0 -149 -112 -245h-460v-114h509z" />
    <glyph glyph-name="uni0418" unicode="&#x418;" horiz-adv-x="1575" 
d="M1296 1498h79v-1498h-294v748l84 142v-806h126v1240l-785 -1324h-306v1498h294v-964l572 964h98l-754 -1271v1187h-126v-1330h174z" />
    <glyph glyph-name="uni0419" unicode="&#x419;" horiz-adv-x="1575" 
d="M643 1758l-182 -55q-27 38 -43 75l250 75q18 -27 50.5 -44.5t69.5 -17.5q36 0 68.5 17.5t50.5 44.5l250 -75q-49 -112 -149.5 -173t-219.5 -61q-151 0 -262 91l104 31q70 -38 158 -38q146 0 239 101l-95 29q-64 -51 -144 -51q-81 0 -145 51zM1296 1498h79v-1498h-294v748
l84 142v-806h126v1240l-785 -1324h-306v1498h294v-964l572 964h98l-754 -1271v1187h-126v-1330h174z" />
    <glyph glyph-name="uni041A" unicode="&#x41a;" horiz-adv-x="1450" 
d="M731 780l671 -780h-381l-401 468v130l439 -514h160l-599 696l546 634h-156l-516 -602v-812h-294v1498h294v-378l-84 -98v392h-126v-1330h126v759l562 655h377z" />
    <glyph glyph-name="uni041B" unicode="&#x41b;" horiz-adv-x="1537" 
d="M511 1498h826v-1498h-294v1216h-322v84h406v-1216h126v1330h-658v-814q0 -148 -39.5 -264.5t-110.5 -191.5t-167.5 -114t-212.5 -39v282q84 17 111 29q85 38 111 163q14 67 14 163v672h84v-672q0 -90 -12.5 -159t-33 -114t-52 -76.5t-64 -47.5t-74.5 -27v-123
q174 27 268 161t94 358v898z" />
    <glyph glyph-name="uni041C" unicode="&#x41c;" horiz-adv-x="1866" 
d="M1368 1498h298v-1498h-294v916l-321 -558h-97l502 873v-1147h126v1330h-165l-603 -1055l-320 557v-916h-294v1498h298l366 -641l-49 -84l-366 641h-165v-1330h126v1147l404 -703z" />
    <glyph glyph-name="uni041D" unicode="&#x41d;" horiz-adv-x="1539" 
d="M1045 1498h294v-1498h-294v646h-761v-562h126v448h84v-532h-294v730h929v-646h126v1330h-126v-570h-929v654h294v-456h-84v372h-126v-486h761v570z" />
    <glyph glyph-name="uni041E" unicode="&#x41e;" 
d="M951 1499q154 -40 266 -149.5t168 -264t56 -335.5q0 -158 -44.5 -297.5t-126.5 -245t-208 -167t-279 -61.5t-279 61.5t-208 167t-126.5 245t-44.5 297.5t44.5 297.5t126.5 245t208 166.5t279 61q14 0 42 -2v-198q100 -9 180 -62.5t128 -134.5t73 -176.5t25 -196.5
q0 -85 -16.5 -166t-52.5 -155t-87.5 -130t-127 -89t-164.5 -33t-164.5 33t-127 89t-87.5 130t-52.5 155t-16.5 166q0 113 29.5 217t94 191.5t156.5 128.5v-95q-98 -61 -147 -185.5t-49 -256.5q0 -66 12 -131.5t39.5 -131t68.5 -115t104 -80.5t140 -31t140 31t104 80.5
t68.5 115t39.5 131t12 131.5t-12 131.5t-40 130.5t-68.5 114.5t-103.5 80.5t-140 31q-23 0 -42 -3v200q-107 -7 -196 -49t-150.5 -108t-104 -152t-62 -180.5t-19.5 -195.5q0 -105 21 -203t67 -186.5t112.5 -154.5t162.5 -104.5t211 -38.5t211 38.5t162.5 104.5t112.5 154.5
t67 186.5t21 203q0 149 -42 281t-136 236.5t-228 144.5v87z" />
    <glyph glyph-name="uni041F" unicode="&#x41f;" horiz-adv-x="1539" 
d="M410 1498h929v-1498h-294v1216h-761v-1132h126v1018h84v-1102h-294v1300h929v-1216h126v1330h-845v84z" />
    <glyph glyph-name="uni0420" unicode="&#x420;" horiz-adv-x="1375" 
d="M718 1498q137 0 241.5 -40t166.5 -109t93 -155.5t31 -186.5q0 -221 -132.5 -362t-362.5 -141h-135v84h135q190 0 300.5 114t110.5 305q0 46 -7 90.5t-35 105t-73.5 104.5t-131.5 75.5t-201 31.5h-434v-1330h126v702h322q224 0 224 221q0 100 -54.5 154.5t-155.5 54.5
h-252v-316h-84v400h336q136 0 215 -78.5t79 -214.5q0 -145 -81 -225t-227 -80h-238v-702h-294v1498h518z" />
    <glyph glyph-name="uni0421" unicode="&#x421;" horiz-adv-x="1336" 
d="M1128 385l134 -257q-224 -149 -481 -149q-122 0 -227.5 38.5t-183.5 108t-133.5 164t-83.5 208t-28 238.5v28q0 22 2 62h211q10 129 61.5 240t148.5 183.5t221 72.5q89 0 154.5 -20t131.5 -61l58 104q-150 91 -350 91q-109 0 -201.5 -39.5t-158.5 -108.5t-110.5 -157.5
t-65.5 -190.5h-86q23 119 74 222.5t128 184t185 127t235 46.5q140 0 250 -36.5t211 -112.5l-140 -251q-91 65 -154 91.5t-161 26.5q-81 0 -148.5 -41t-111 -108.5t-67 -151.5t-23.5 -173v-22h-210v-6q0 -134 36.5 -253.5t105.5 -214t180 -150t250 -55.5q196 0 370 96
l-56 107q-156 -89 -306 -89q-99 0 -180 36.5t-134.5 100.5t-87 143.5t-45.5 171.5h85q11 -75 37.5 -139t69.5 -116.5t108.5 -82.5t146.5 -30q89 0 169.5 32.5t169.5 91.5z" />
    <glyph glyph-name="uni0422" unicode="&#x422;" horiz-adv-x="1225" 
d="M676 1498h474v-282h-264v84h180v114h-306v-1414h-294v1414h-307v-114h181v-84h-265v282h475v-1414h126v1414z" />
    <glyph glyph-name="uni0423" unicode="&#x423;" horiz-adv-x="1380" 
d="M798 328l-483 1086h-135l447 -989l-16 -33l-25 -50.5t-33 -54t-46 -56.5t-56 -37t-71 -17q-47 0 -98 14l-32 -108q49 -20 143 -20q71 0 125.5 28.5t91 75t77.5 124.5l44 -93q-36 -65 -78 -110.5t-109.5 -77t-150.5 -31.5q-56 0 -104 8t-73.5 17t-68.5 27l80 269
q92 -39 153 -39q82 0 154 167l-484 1070h320l429 -966l401 882h-136l-264 -595l-46 103l255 576h321z" />
    <glyph glyph-name="uni0424" unicode="&#x424;" horiz-adv-x="1888" 
d="M1217 1347q116 -19 212.5 -62.5t172.5 -113t118.5 -174t42.5 -234.5q0 -246 -148.5 -393.5t-397.5 -190.5v85q66 12 124.5 32t122.5 59.5t109.5 92t75.5 134t30 181.5q0 87 -22.5 160t-58 123.5t-86.5 90.5t-101.5 64t-109.5 41v-123q252 -91 252 -356q0 -54 -11 -101
t-28 -82t-45.5 -65t-54.5 -50t-64.5 -37t-66 -27t-69.5 -19t-64 -12.5t-59 -8.5v-361h-294v826h210v588h-126v-326q-242 -19 -352 -91.5t-110 -233.5q0 -130 66.5 -197t185.5 -97v-291q-249 43 -397.5 191t-148.5 394q0 130 42.5 234.5t118.5 174t172.5 113t212.5 62.5v-85
q-66 -12 -124.5 -32t-122.5 -59.5t-109.5 -91.5t-75.5 -134t-30 -182q0 -107 32.5 -192.5t89.5 -141t119.5 -90t136.5 -56.5v124q-252 91 -252 356q0 56 12 103.5t29.5 83t47.5 66t56.5 50t66 36.5t67 26t68.5 17.5t61 11.5t54 7v334h294v-756h-210v-658h126v352
q116 11 194.5 30t142.5 55t94.5 95.5t30.5 146.5q0 127 -64 194.5t-188 99.5v290z" />
    <glyph glyph-name="uni0425" unicode="&#x425;" horiz-adv-x="1445" 
d="M1050 0l-450 701l-396 -617h145l252 392l50 -78l-256 -398h-345l550 856l496 -772h145l-446 695l408 635h-144l-336 -523l-337 523h-144l286 -444l-50 -78l-390 606h344l291 -451l290 451h344l-462 -719l500 -779h-345z" />
    <glyph glyph-name="uni0426" unicode="&#x426;" horiz-adv-x="1583" 
d="M1493 -353h-294v353h-999v1498h294v-1216h705v1132h-126v-1019h-84v1103h294v-1300h-873v1216h-126v-1330h999v-353h126v551h84v-635z" />
    <glyph glyph-name="uni0427" unicode="&#x427;" horiz-adv-x="1458" 
d="M697 711q-78 0 -139 25.5t-98 68.5t-56 95t-19 109v405h-126v-395q0 -89 25.5 -161.5t67.5 -120t99.5 -80t118.5 -46.5t127 -14q89 0 182 9.5t146 19.5t134 27l99 21v-674h-294v417q33 5 84 14v-347h126v486q-3 -1 -80 -16t-114 -20.5t-119 -13t-164 -7.5q-103 0 -195 31
t-166 91t-117.5 159t-43.5 225v479h294v-489q0 -90 57.5 -152t170.5 -62q203 0 477 63v556h-126v-468q-51 -9 -84 -14v566h294v-705q-319 -82 -561 -82z" />
    <glyph glyph-name="uni0428" unicode="&#x428;" horiz-adv-x="2160" 
d="M1666 1498h294v-1498h-1760v1498h294v-1216h313v-84h-397v1216h-126v-1330h1592v1330h-126v-1216h-817v1300h294v-1102h-84v1018h-126v-1132h649v1216z" />
    <glyph glyph-name="uni0429" unicode="&#x429;" horiz-adv-x="2260" 
d="M2170 -352h-294v352h-1676v1498h294v-1216h439v1216h294v-1216h649v1132h-126v-1018h-84v1102h294v-1300h-817v1216h-126v-1216h-607v1216h-126v-1330h1676v-352h126v550h84v-634z" />
    <glyph glyph-name="uni042A" unicode="&#x42a;" horiz-adv-x="1501" 
d="M838 944q247 0 392.5 -126.5t145.5 -343.5q0 -99 -33.5 -183.5t-98.5 -150t-171 -103t-243 -37.5h-458v746h458q86 0 151 -21t99 -50.5t54.5 -70t26 -70t5.5 -60.5q0 -128 -86.5 -202t-235.5 -74h-262v351h84v-267h178q109 0 173.5 47.5t64.5 144.5q0 188 -252 188h-374
v-578h374q233 0 356 117q106 101 106 273q0 182 -120 284t-334 102h-466v356h-322v282h616v-440h-84v356h-448v-114h322v-356h382z" />
    <glyph glyph-name="uni042B" unicode="&#x42b;" horiz-adv-x="1826" 
d="M686 944q245 0 382 -125.5t137 -344.5q0 -97 -30.5 -180.5t-91.5 -150t-165 -105t-240 -38.5h-478v1498h294v-440h-84v356h-126v-1330h394q229 0 344 118q99 100 99 272q0 182 -109 282q-113 104 -326 104h-192v-578h198q219 0 219 192q0 94 -53.5 141t-179.5 47h-58v84
h58q76 0 133.5 -16.5t91.5 -43t55.5 -63.5t29 -72.5t7.5 -76.5q0 -131 -79 -203.5t-224 -72.5h-282v746h276zM1332 1498h294v-1498h-294v944h84v-860h126v1330h-126v-356h-84v440z" />
    <glyph glyph-name="uni042C" unicode="&#x42c;" horiz-adv-x="1369" 
d="M705 944q248 0 393.5 -126t145.5 -344q0 -99 -33.5 -183.5t-98.5 -150t-171 -103t-243 -37.5h-498v1498h294v-752h203q86 0 151 -21t99.5 -50.5t55 -70t26 -70t5.5 -60.5q0 -127 -86.5 -201.5t-235.5 -74.5h-302v351h84v-267h218q109 0 173.5 47.5t64.5 144.5
q0 188 -252 188h-288v752h-126v-1330h414q235 0 355 117q107 102 107 273q0 181 -120.5 283.5t-334.5 102.5h-85v84h85z" />
    <glyph glyph-name="uni042D" unicode="&#x42d;" horiz-adv-x="1331" 
d="M525 730h681q0 -125 -24.5 -236t-76 -206t-127 -163.5t-182 -107t-235.5 -38.5q-151 0 -265.5 43t-220.5 114l138 252q96 -61 180.5 -94t180.5 -33q128 0 205.5 74t108.5 197h86q-36 -167 -141 -261t-259 -94q-161 0 -329 94l-58 -106q174 -102 374 -102
q131 0 234.5 44.5t170 124t105 184t48.5 230.5h-678v282h669q-14 83 -42 157t-74 139t-105.5 111.5t-140 73.5t-173.5 27q-105 0 -183 -22.5t-157 -69.5l58 -104q142 82 296 82q125 0 221.5 -74.5t142.5 -205.5h-90q-40 91 -110.5 143.5t-163.5 52.5q-56 0 -105 -10
t-93.5 -32t-65.5 -35l-62 -40l-140 251q113 77 213.5 112.5t238.5 35.5q141 0 257.5 -53.5t194 -146.5t123 -214.5t54.5 -261.5h-679v-114z" />
    <glyph glyph-name="uni042E" unicode="&#x42e;" horiz-adv-x="2043" 
d="M1260 1520q206 0 356 -99t226 -272t76 -399q0 -225 -76 -398t-226.5 -273t-355.5 -100q-128 0 -233 41t-179 116.5t-123.5 174.5t-75.5 222h86q16 -70 40 -131.5t67 -125.5t98 -109.5t138 -74.5t182 -29q144 0 256 55t180 150.5t103 217.5t35 264q0 110 -20 208.5
t-65 187t-110.5 152t-162.5 101t-216 37.5q-117 0 -212 -40t-159 -111.5t-104.5 -164.5t-56.5 -204l-10 -72h-308v570h-126v-1330h126v646h514q1 -67 11.5 -129t35 -125t61 -109.5t95.5 -76t133 -29.5q78 0 141 28t104 75t68.5 111t39 132.5t11.5 142.5t-11.5 142.5t-39 132
t-68.5 110.5t-104 75t-141 28q-81 0 -144 -34t-100.5 -92.5t-58.5 -124.5t-29 -143h-84q20 223 130 350.5t286 127.5q206 0 327 -155.5t121 -416.5q0 -262 -121 -417.5t-327 -155.5q-174 0 -283.5 124.5t-131.5 344.5h-351v-646h-294v1498h294v-570h151q18 126 65 231.5
t122 187t185 127.5t243 46z" />
    <glyph glyph-name="uni042F" unicode="&#x42f;" horiz-adv-x="1404" 
d="M681 812h82l-62 -84h-20q-151 0 -236 78t-85 216q0 127 85 202.5t227 75.5h322v-513l-580 -787h-357l424 571q-155 39 -243 160.5t-88 290.5q0 99 34.5 184.5t100.5 151t170 103t235 37.5h514v-1498h-294v476l84 113v-505h126v1330h-430q-213 0 -334.5 -106t-121.5 -286
q0 -109 45 -197.5t132 -136.5q68 -39 212 -66l-399 -538h148l538 731v401h-238q-106 0 -167 -50.5t-61 -143.5t55 -151.5t182 -58.5z" />
    <glyph glyph-name="uni0430" unicode="&#x430;" horiz-adv-x="1482" 
d="M888 1498l545 -1498h-307l-135 373h-717l-105 -289h127l64 175h89l-94 -259h-306l166 457h835l135 -373h128l-484 1330h-176l-276 -759h512l-148 407l-107 -293h-89l196 539l268 -737h-752l337 927h294z" />
    <glyph glyph-name="uni0431" unicode="&#x431;" horiz-adv-x="1395" 
d="M755 928q239 0 377 -132t138 -332q0 -96 -33.5 -180t-96 -147.5t-160 -100t-216.5 -36.5h-564v730h566q130 0 212 -74t82 -192q0 -119 -81.5 -192.5t-214.5 -73.5h-354v335h84v-251h270q39 0 75 9.5t67.5 29.5t50.5 57t19 86q0 85 -58.5 133.5t-151.5 48.5h-482v-562h480
q193 0 307.5 103.5t114.5 276.5q0 172 -116.5 276t-314.5 104h-555v654h963v-282h-669v-175h-84v259h669v114h-795v-486h471z" />
    <glyph glyph-name="uni0432" unicode="&#x432;" horiz-adv-x="1415" 
d="M917 908q172 -43 267.5 -160.5t95.5 -299.5q0 -191 -135 -319.5t-358 -128.5h-587v1498h529q107 0 197.5 -33t149.5 -88t92 -125t33 -146q0 -116 -35 -188l-71 46q22 53 22 142q0 126 -107 217t-281 91h-445v-1330h503q191 0 300 105.5t109 258.5q0 102 -35.5 179.5
t-99 124t-145 69.5t-178.5 23h-118v84h114q80 0 128.5 40.5t48.5 119.5q0 62 -52 95t-139 33h-226v-486h273q138 0 220.5 -76t82.5 -194q0 -111 -71.5 -186.5t-208.5 -75.5h-380v334h84v-250h296q99 0 147.5 50t48.5 128q0 79 -56 132.5t-163 53.5h-357v654h310
q73 0 128 -19t86 -50.5t46 -67.5t15 -75q0 -86 -44 -147q-16 -20 -34 -33z" />
    <glyph glyph-name="uni0433" unicode="&#x433;" horiz-adv-x="1101" 
d="M410 1498h616v-282h-406v84h322v114h-448v-1414h-294v1300h84v-1216h126v1414z" />
    <glyph glyph-name="uni0434" unicode="&#x434;" horiz-adv-x="1640" 
d="M1550 -352h-294v352h-897v-352h-294v634h127q37 47 63.5 91.5t58 117t48.5 172t17 217.5v420h783v-820h126v934h-699v84h783v-1102h-294v820h-615v-336q0 -126 -18.5 -233t-52.5 -186.5t-64 -129.5t-70 -101l-25 -32h-84v-466h126v352h1065v-352h126v466h-1074l70 122
q19 33 37.5 75.5t40.5 111t35.5 163t13.5 198.5v235h84v-235q0 -339 -136 -586h1013v-634z" />
    <glyph glyph-name="uni0435" unicode="&#x435;" horiz-adv-x="1277" 
d="M494 282h633v-282h-927v1498h913v-282h-619v-175h-84v259h619v114h-745v-1330h759v114h-633v729h680v-282h-470v84h386v114h-512v-561z" />
    <glyph glyph-name="uni0436" unicode="&#x436;" horiz-adv-x="2135" 
d="M1394 781l693 -781h-387l-485 548v-548h-294v374l84 94v-384h126v526l70 80l537 -606h162l-618 697l563 633h-156l-1254 -1414h-387l693 781l-637 717h380l437 -493v493h294v-309l-84 -95v320h-126v-462l-75 -84l-484 546h-155l562 -633l-618 -697h162l1254 1414h381z
" />
    <glyph glyph-name="uni0437" unicode="&#x437;" horiz-adv-x="1333" 
d="M1066 731q64 -55 98 -132t34 -163q0 -196 -160 -326.5t-424 -130.5q-181 0 -305.5 44.5t-233.5 120.5l127 248q217 -131 392 -131q214 0 282 95q29 40 29 101q0 42 -17 76h90q11 -38 11 -76q0 -136 -104.5 -208t-290.5 -72q-173 0 -357 99l-53 -103q184 -110 430 -110
q128 0 232 36.5t171 104.5q97 97 97 232q0 124 -82 211h-559v282h510q62 64 62 161q0 153 -121 249.5t-314 96.5q-114 0 -199.5 -22t-163.5 -72l60 -95q129 75 268 75q194 0 284 -90q63 -65 63 -158q0 -22 -2 -32h-85q3 12 3 33q0 70 -61 116.5t-203 46.5q-153 0 -292 -108
l-148 234q104 84 215.5 120t260.5 36q120 0 219 -34.5t164 -94t100.5 -137t35.5 -164.5q0 -149 -112 -245h-460v-114h509z" />
    <glyph glyph-name="uni0438" unicode="&#x438;" horiz-adv-x="1575" 
d="M1296 1498h79v-1498h-294v748l84 142v-806h126v1240l-785 -1324h-306v1498h294v-964l572 964h98l-754 -1271v1187h-126v-1330h174z" />
    <glyph glyph-name="uni0439" unicode="&#x439;" horiz-adv-x="1575" 
d="M643 1758l-182 -55q-27 38 -43 75l250 75q18 -27 50.5 -44.5t69.5 -17.5q36 0 68.5 17.5t50.5 44.5l250 -75q-49 -112 -149.5 -173t-219.5 -61q-151 0 -262 91l104 31q70 -38 158 -38q146 0 239 101l-95 29q-64 -51 -144 -51q-81 0 -145 51zM1296 1498h79v-1498h-294v748
l84 142v-806h126v1240l-785 -1324h-306v1498h294v-964l572 964h98l-754 -1271v1187h-126v-1330h174z" />
    <glyph glyph-name="uni043A" unicode="&#x43a;" horiz-adv-x="1450" 
d="M731 780l671 -780h-381l-401 468v130l439 -514h160l-599 696l546 634h-156l-516 -602v-812h-294v1498h294v-378l-84 -98v392h-126v-1330h126v759l562 655h377z" />
    <glyph glyph-name="uni043B" unicode="&#x43b;" horiz-adv-x="1537" 
d="M511 1498h826v-1498h-294v1216h-322v84h406v-1216h126v1330h-658v-814q0 -148 -39.5 -264.5t-110.5 -191.5t-167.5 -114t-212.5 -39v282q84 17 111 29q85 38 111 163q14 67 14 163v672h84v-672q0 -90 -12.5 -159t-33 -114t-52 -76.5t-64 -47.5t-74.5 -27v-123
q174 27 268 161t94 358v898z" />
    <glyph glyph-name="uni043C" unicode="&#x43c;" horiz-adv-x="1866" 
d="M1368 1498h298v-1498h-294v916l-321 -558h-97l502 873v-1147h126v1330h-165l-603 -1055l-320 557v-916h-294v1498h298l366 -641l-49 -84l-366 641h-165v-1330h126v1147l404 -703z" />
    <glyph glyph-name="uni043D" unicode="&#x43d;" horiz-adv-x="1539" 
d="M1045 1498h294v-1498h-294v646h-761v-562h126v448h84v-532h-294v730h929v-646h126v1330h-126v-570h-929v654h294v-456h-84v372h-126v-486h761v570z" />
    <glyph glyph-name="uni043E" unicode="&#x43e;" 
d="M951 1499q154 -40 266 -149.5t168 -264t56 -335.5q0 -158 -44.5 -297.5t-126.5 -245t-208 -167t-279 -61.5t-279 61.5t-208 167t-126.5 245t-44.5 297.5t44.5 297.5t126.5 245t208 166.5t279 61q14 0 42 -2v-198q100 -9 180 -62.5t128 -134.5t73 -176.5t25 -196.5
q0 -85 -16.5 -166t-52.5 -155t-87.5 -130t-127 -89t-164.5 -33t-164.5 33t-127 89t-87.5 130t-52.5 155t-16.5 166q0 113 29.5 217t94 191.5t156.5 128.5v-95q-98 -61 -147 -185.5t-49 -256.5q0 -66 12 -131.5t39.5 -131t68.5 -115t104 -80.5t140 -31t140 31t104 80.5
t68.5 115t39.5 131t12 131.5t-12 131.5t-40 130.5t-68.5 114.5t-103.5 80.5t-140 31q-23 0 -42 -3v200q-107 -7 -196 -49t-150.5 -108t-104 -152t-62 -180.5t-19.5 -195.5q0 -105 21 -203t67 -186.5t112.5 -154.5t162.5 -104.5t211 -38.5t211 38.5t162.5 104.5t112.5 154.5
t67 186.5t21 203q0 149 -42 281t-136 236.5t-228 144.5v87z" />
    <glyph glyph-name="uni043F" unicode="&#x43f;" horiz-adv-x="1539" 
d="M410 1498h929v-1498h-294v1216h-761v-1132h126v1018h84v-1102h-294v1300h929v-1216h126v1330h-845v84z" />
    <glyph glyph-name="uni0440" unicode="&#x440;" horiz-adv-x="1375" 
d="M718 1498q137 0 241.5 -40t166.5 -109t93 -155.5t31 -186.5q0 -221 -132.5 -362t-362.5 -141h-135v84h135q190 0 300.5 114t110.5 305q0 46 -7 90.5t-35 105t-73.5 104.5t-131.5 75.5t-201 31.5h-434v-1330h126v702h322q224 0 224 221q0 100 -54.5 154.5t-155.5 54.5
h-252v-316h-84v400h336q136 0 215 -78.5t79 -214.5q0 -145 -81 -225t-227 -80h-238v-702h-294v1498h518z" />
    <glyph glyph-name="uni0441" unicode="&#x441;" horiz-adv-x="1336" 
d="M1128 385l134 -257q-224 -149 -481 -149q-122 0 -227.5 38.5t-183.5 108t-133.5 164t-83.5 208t-28 238.5v28q0 22 2 62h211q10 129 61.5 240t148.5 183.5t221 72.5q89 0 154.5 -20t131.5 -61l58 104q-150 91 -350 91q-109 0 -201.5 -39.5t-158.5 -108.5t-110.5 -157.5
t-65.5 -190.5h-86q23 119 74 222.5t128 184t185 127t235 46.5q140 0 250 -36.5t211 -112.5l-140 -251q-91 65 -154 91.5t-161 26.5q-81 0 -148.5 -41t-111 -108.5t-67 -151.5t-23.5 -173v-22h-210v-6q0 -134 36.5 -253.5t105.5 -214t180 -150t250 -55.5q196 0 370 96
l-56 107q-156 -89 -306 -89q-99 0 -180 36.5t-134.5 100.5t-87 143.5t-45.5 171.5h85q11 -75 37.5 -139t69.5 -116.5t108.5 -82.5t146.5 -30q89 0 169.5 32.5t169.5 91.5z" />
    <glyph glyph-name="uni0442" unicode="&#x442;" horiz-adv-x="1225" 
d="M676 1498h474v-282h-264v84h180v114h-306v-1414h-294v1414h-307v-114h181v-84h-265v282h475v-1414h126v1414z" />
    <glyph glyph-name="uni0443" unicode="&#x443;" horiz-adv-x="1380" 
d="M798 328l-483 1086h-135l447 -989l-16 -33l-25 -50.5t-33 -54t-46 -56.5t-56 -37t-71 -17q-47 0 -98 14l-32 -108q49 -20 143 -20q71 0 125.5 28.5t91 75t77.5 124.5l44 -93q-36 -65 -78 -110.5t-109.5 -77t-150.5 -31.5q-56 0 -104 8t-73.5 17t-68.5 27l80 269
q92 -39 153 -39q82 0 154 167l-484 1070h320l429 -966l401 882h-136l-264 -595l-46 103l255 576h321z" />
    <glyph glyph-name="uni0444" unicode="&#x444;" horiz-adv-x="1888" 
d="M1217 1347q116 -19 212.5 -62.5t172.5 -113t118.5 -174t42.5 -234.5q0 -246 -148.5 -393.5t-397.5 -190.5v85q66 12 124.5 32t122.5 59.5t109.5 92t75.5 134t30 181.5q0 87 -22.5 160t-58 123.5t-86.5 90.5t-101.5 64t-109.5 41v-123q252 -91 252 -356q0 -54 -11 -101
t-28 -82t-45.5 -65t-54.5 -50t-64.5 -37t-66 -27t-69.5 -19t-64 -12.5t-59 -8.5v-361h-294v826h210v588h-126v-326q-242 -19 -352 -91.5t-110 -233.5q0 -130 66.5 -197t185.5 -97v-291q-249 43 -397.5 191t-148.5 394q0 130 42.5 234.5t118.5 174t172.5 113t212.5 62.5v-85
q-66 -12 -124.5 -32t-122.5 -59.5t-109.5 -91.5t-75.5 -134t-30 -182q0 -107 32.5 -192.5t89.5 -141t119.5 -90t136.5 -56.5v124q-252 91 -252 356q0 56 12 103.5t29.5 83t47.5 66t56.5 50t66 36.5t67 26t68.5 17.5t61 11.5t54 7v334h294v-756h-210v-658h126v352
q116 11 194.5 30t142.5 55t94.5 95.5t30.5 146.5q0 127 -64 194.5t-188 99.5v290z" />
    <glyph glyph-name="uni0445" unicode="&#x445;" horiz-adv-x="1445" 
d="M1050 0l-450 701l-396 -617h145l252 392l50 -78l-256 -398h-345l550 856l496 -772h145l-446 695l408 635h-144l-336 -523l-337 523h-144l286 -444l-50 -78l-390 606h344l291 -451l290 451h344l-462 -719l500 -779h-345z" />
    <glyph glyph-name="uni0446" unicode="&#x446;" horiz-adv-x="1583" 
d="M1493 -353h-294v353h-999v1498h294v-1216h705v1132h-126v-1019h-84v1103h294v-1300h-873v1216h-126v-1330h999v-353h126v551h84v-635z" />
    <glyph glyph-name="uni0447" unicode="&#x447;" horiz-adv-x="1458" 
d="M697 711q-78 0 -139 25.5t-98 68.5t-56 95t-19 109v405h-126v-395q0 -89 25.5 -161.5t67.5 -120t99.5 -80t118.5 -46.5t127 -14q89 0 182 9.5t146 19.5t134 27l99 21v-674h-294v417q33 5 84 14v-347h126v486q-3 -1 -80 -16t-114 -20.5t-119 -13t-164 -7.5q-103 0 -195 31
t-166 91t-117.5 159t-43.5 225v479h294v-489q0 -90 57.5 -152t170.5 -62q203 0 477 63v556h-126v-468q-51 -9 -84 -14v566h294v-705q-319 -82 -561 -82z" />
    <glyph glyph-name="uni0448" unicode="&#x448;" horiz-adv-x="2160" 
d="M1666 1498h294v-1498h-1760v1498h294v-1216h313v-84h-397v1216h-126v-1330h1592v1330h-126v-1216h-817v1300h294v-1102h-84v1018h-126v-1132h649v1216z" />
    <glyph glyph-name="uni0449" unicode="&#x449;" horiz-adv-x="2260" 
d="M2170 -352h-294v352h-1676v1498h294v-1216h439v1216h294v-1216h649v1132h-126v-1018h-84v1102h294v-1300h-817v1216h-126v-1216h-607v1216h-126v-1330h1676v-352h126v550h84v-634z" />
    <glyph glyph-name="uni044A" unicode="&#x44a;" horiz-adv-x="1501" 
d="M838 944q247 0 392.5 -126.5t145.5 -343.5q0 -99 -33.5 -183.5t-98.5 -150t-171 -103t-243 -37.5h-458v746h458q86 0 151 -21t99 -50.5t54.5 -70t26 -70t5.5 -60.5q0 -128 -86.5 -202t-235.5 -74h-262v351h84v-267h178q109 0 173.5 47.5t64.5 144.5q0 188 -252 188h-374
v-578h374q233 0 356 117q106 101 106 273q0 182 -120 284t-334 102h-466v356h-322v282h616v-440h-84v356h-448v-114h322v-356h382z" />
    <glyph glyph-name="uni044B" unicode="&#x44b;" horiz-adv-x="1826" 
d="M686 944q245 0 382 -125.5t137 -344.5q0 -97 -30.5 -180.5t-91.5 -150t-165 -105t-240 -38.5h-478v1498h294v-440h-84v356h-126v-1330h394q229 0 344 118q99 100 99 272q0 182 -109 282q-113 104 -326 104h-192v-578h198q219 0 219 192q0 94 -53.5 141t-179.5 47h-58v84
h58q76 0 133.5 -16.5t91.5 -43t55.5 -63.5t29 -72.5t7.5 -76.5q0 -131 -79 -203.5t-224 -72.5h-282v746h276zM1332 1498h294v-1498h-294v944h84v-860h126v1330h-126v-356h-84v440z" />
    <glyph glyph-name="uni044C" unicode="&#x44c;" horiz-adv-x="1369" 
d="M705 944q248 0 393.5 -126t145.5 -344q0 -99 -33.5 -183.5t-98.5 -150t-171 -103t-243 -37.5h-498v1498h294v-752h203q86 0 151 -21t99.5 -50.5t55 -70t26 -70t5.5 -60.5q0 -127 -86.5 -201.5t-235.5 -74.5h-302v351h84v-267h218q109 0 173.5 47.5t64.5 144.5
q0 188 -252 188h-288v752h-126v-1330h414q235 0 355 117q107 102 107 273q0 181 -120.5 283.5t-334.5 102.5h-85v84h85z" />
    <glyph glyph-name="uni044D" unicode="&#x44d;" horiz-adv-x="1331" 
d="M525 730h681q0 -125 -24.5 -236t-76 -206t-127 -163.5t-182 -107t-235.5 -38.5q-151 0 -265.5 43t-220.5 114l138 252q96 -61 180.5 -94t180.5 -33q128 0 205.5 74t108.5 197h86q-36 -167 -141 -261t-259 -94q-161 0 -329 94l-58 -106q174 -102 374 -102
q131 0 234.5 44.5t170 124t105 184t48.5 230.5h-678v282h669q-14 83 -42 157t-74 139t-105.5 111.5t-140 73.5t-173.5 27q-105 0 -183 -22.5t-157 -69.5l58 -104q142 82 296 82q125 0 221.5 -74.5t142.5 -205.5h-90q-40 91 -110.5 143.5t-163.5 52.5q-56 0 -105 -10
t-93.5 -32t-65.5 -35l-62 -40l-140 251q113 77 213.5 112.5t238.5 35.5q141 0 257.5 -53.5t194 -146.5t123 -214.5t54.5 -261.5h-679v-114z" />
    <glyph glyph-name="uni044E" unicode="&#x44e;" horiz-adv-x="2043" 
d="M1260 1520q206 0 356 -99t226 -272t76 -399q0 -225 -76 -398t-226.5 -273t-355.5 -100q-128 0 -233 41t-179 116.5t-123.5 174.5t-75.5 222h86q16 -70 40 -131.5t67 -125.5t98 -109.5t138 -74.5t182 -29q144 0 256 55t180 150.5t103 217.5t35 264q0 110 -20 208.5
t-65 187t-110.5 152t-162.5 101t-216 37.5q-117 0 -212 -40t-159 -111.5t-104.5 -164.5t-56.5 -204l-10 -72h-308v570h-126v-1330h126v646h514q1 -67 11.5 -129t35 -125t61 -109.5t95.5 -76t133 -29.5q78 0 141 28t104 75t68.5 111t39 132.5t11.5 142.5t-11.5 142.5t-39 132
t-68.5 110.5t-104 75t-141 28q-81 0 -144 -34t-100.5 -92.5t-58.5 -124.5t-29 -143h-84q20 223 130 350.5t286 127.5q206 0 327 -155.5t121 -416.5q0 -262 -121 -417.5t-327 -155.5q-174 0 -283.5 124.5t-131.5 344.5h-351v-646h-294v1498h294v-570h151q18 126 65 231.5
t122 187t185 127.5t243 46z" />
    <glyph glyph-name="uni044F" unicode="&#x44f;" horiz-adv-x="1404" 
d="M681 812h82l-62 -84h-20q-151 0 -236 78t-85 216q0 127 85 202.5t227 75.5h322v-513l-580 -787h-357l424 571q-155 39 -243 160.5t-88 290.5q0 99 34.5 184.5t100.5 151t170 103t235 37.5h514v-1498h-294v476l84 113v-505h126v1330h-430q-213 0 -334.5 -106t-121.5 -286
q0 -109 45 -197.5t132 -136.5q68 -39 212 -66l-399 -538h148l538 731v401h-238q-106 0 -167 -50.5t-61 -143.5t55 -151.5t182 -58.5z" />
    <glyph glyph-name="uni0451" unicode="&#x451;" horiz-adv-x="1277" 
d="M494 282h633v-282h-927v1498h913v-282h-619v-175h-84v259h619v114h-745v-1330h759v114h-633v729h680v-282h-470v84h386v114h-512v-561zM392 1615q-39 19 -63 56.5t-24 83.5q0 64 45 109t109 45t109.5 -45t45.5 -109q0 -46 -24 -83.5t-64 -56.5l-37 76q41 19 41 64
q0 29 -21 49.5t-50 20.5t-49.5 -20.5t-20.5 -49.5q0 -45 41 -64zM811 1615q-40 19 -64 56.5t-24 83.5q0 64 45.5 109t109.5 45t109.5 -45t45.5 -109q0 -46 -24 -83.5t-64 -56.5l-37 76q41 19 41 64q0 29 -21 49.5t-50 20.5t-50 -20.5t-21 -49.5q0 -45 41 -64z" />
    <glyph glyph-name="uni0454" unicode="&#x454;" horiz-adv-x="1346" 
d="M125 730h700v114h-698q19 200 96 350.5t217 238t328 87.5q138 0 241 -36t214 -112l-139 -251q-38 26 -62 40t-68 35t-94 31.5t-106 10.5q-98 0 -164 -50t-113 -146h-92q116 280 369 280q157 0 300 -82l58 104q-78 47 -158 69.5t-186 22.5q-228 0 -364.5 -137.5
t-180.5 -370.5h686v-282h-696q10 -129 49.5 -234t108.5 -183.5t173.5 -122t237.5 -43.5q200 0 378 102l-58 106q-173 -94 -333 -94q-156 0 -265 95t-147 260h87q32 -122 114 -196.5t211 -74.5q96 0 183 33.5t182 93.5l138 -252q-234 -157 -490 -157q-164 0 -291.5 59
t-206 163t-118.5 238t-41 291z" />
    <glyph glyph-name="uni0456" unicode="&#x456;" horiz-adv-x="744" 
d="M519 1216h-210v-1132h126v1018h84v-1102h-294v1300h210v114h-210v84h294v-282z" />
    <glyph glyph-name="uni0457" unicode="&#x457;" horiz-adv-x="744" 
d="M95 1616q-39 19 -63 56t-24 83q0 64 45 109t109 45t109.5 -45t45.5 -109q0 -46 -24 -83t-64 -56l-37 75q41 19 41 64q0 29 -21 49.5t-50 20.5t-49.5 -20.5t-20.5 -49.5q0 -45 41 -64zM514 1616q-40 19 -64 56t-24 83q0 64 45.5 109t109.5 45t109.5 -45t45.5 -109
q0 -46 -24 -83t-64 -56l-37 75q41 19 41 64q0 29 -21 49.5t-50 20.5t-50 -20.5t-21 -49.5q0 -45 41 -64zM519 1216h-210v-1132h126v1018h84v-1102h-294v1300h210v114h-210v84h294v-282z" />
    <glyph glyph-name="uni045E" unicode="&#x45e;" horiz-adv-x="1380" 
d="M545 1757l-181 -54q-26 35 -43 75l249 74q19 -27 51 -44t69 -17t69 17t51 44l250 -74q-50 -112 -150.5 -173.5t-219.5 -61.5q-148 0 -262 91l105 32q72 -39 157 -39q147 0 239 102l-94 28q-63 -50 -145 -50t-145 50zM798 328l-483 1086h-135l447 -989l-16 -33l-25 -50.5
t-33 -54t-46 -56.5t-56 -37t-71 -17q-47 0 -98 14l-32 -108q49 -20 143 -20q71 0 125.5 28.5t91 75t77.5 124.5l44 -93q-36 -65 -78 -110.5t-109.5 -77t-150.5 -31.5q-56 0 -104 8t-73.5 17t-68.5 27l80 269q92 -39 153 -39q82 0 154 167l-484 1070h320l429 -966l401 882
h-136l-264 -595l-46 103l255 576h321z" />
    <glyph glyph-name="uni0490" unicode="&#x490;" horiz-adv-x="1101" 
d="M744 1726h282v-510h-406v84h322v342h-114v-228h-334v-1414h-294v1300h84v-1216h126v1414h334v228z" />
    <glyph glyph-name="uni0491" unicode="&#x491;" horiz-adv-x="1101" 
d="M744 1726h282v-510h-406v84h322v342h-114v-228h-334v-1414h-294v1300h84v-1216h126v1414h334v228z" />
    <glyph glyph-name="endash" unicode="&#x2013;" horiz-adv-x="1249" 
d="M150 878h949v-258h-949v84h865v90h-865v84z" />
    <glyph glyph-name="emdash" unicode="&#x2014;" horiz-adv-x="2248" 
d="M150 877h1948v-257h-1948v84h1864v89h-1864v84z" />
    <glyph glyph-name="quoteleft" unicode="&#x2018;" horiz-adv-x="509" 
d="M255 1051q-64 0 -109.5 45.5t-45.5 109.5q0 46 129 314h93q-138 -282 -138 -314q0 -29 21 -50t50 -21t49.5 21t20.5 50q0 44 -38 62l35 77q39 -19 63 -56.5t24 -82.5q0 -64 -45 -109.5t-109 -45.5z" />
    <glyph glyph-name="quoteright" unicode="&#x2019;" horiz-adv-x="509" 
d="M255 1520q64 0 109 -45t45 -109q0 -49 -129 -315h-93q138 284 138 315q0 29 -20.5 49.5t-49.5 20.5t-50 -20.5t-21 -49.5q0 -42 38 -63l-34 -76q-40 19 -64 56t-24 83q0 64 45.5 109t109.5 45z" />
    <glyph glyph-name="quotesinglbase" unicode="&#x201a;" horiz-adv-x="509" 
d="M255 273q64 0 109 -45.5t45 -109.5q0 -50 -129 -314h-93q138 282 138 314q0 29 -20.5 50t-49.5 21t-50 -21t-21 -50q0 -41 38 -62l-34 -77q-40 19 -64 56.5t-24 82.5q0 64 45 109.5t110 45.5z" />
    <glyph glyph-name="quotedblleft" unicode="&#x201c;" horiz-adv-x="915" 
d="M660 1051q-64 0 -109 45.5t-45 109.5q0 50 129 314h93q-138 -282 -138 -314q0 -29 20.5 -50t49.5 -21t50 21t21 50q0 43 -38 62l35 77q39 -19 63 -56.5t24 -82.5q0 -64 -45.5 -109.5t-109.5 -45.5zM255 1051q-64 0 -109.5 45.5t-45.5 109.5q0 46 129 314h93
q-138 -282 -138 -314q0 -29 21 -50t50 -21t49.5 21t20.5 50q0 44 -38 62l35 77q39 -19 63 -56.5t24 -82.5q0 -64 -45 -109.5t-109 -45.5z" />
    <glyph glyph-name="quotedblright" unicode="&#x201d;" horiz-adv-x="915" 
d="M660 1520q64 0 109.5 -45t45.5 -109q0 -49 -129 -315h-93q138 284 138 315q0 29 -21 49.5t-50 20.5t-50 -20.5t-21 -49.5q0 -43 39 -63l-35 -76q-40 19 -64 56t-24 83q0 64 45.5 109t109.5 45zM255 1520q64 0 109 -45t45 -109q0 -49 -129 -315h-93q138 284 138 315
q0 29 -20.5 49.5t-49.5 20.5t-50 -20.5t-21 -49.5q0 -42 38 -63l-34 -76q-40 19 -64 56t-24 83q0 64 45.5 109t109.5 45z" />
    <glyph glyph-name="quotedblbase" unicode="&#x201e;" horiz-adv-x="915" 
d="M660 273q64 0 109 -45.5t45 -109.5q0 -50 -129 -314h-93q138 282 138 314q0 29 -20.5 50t-49.5 21t-50 -21t-21 -50q0 -41 38 -62l-35 -77q-39 19 -63 56.5t-24 82.5q0 64 45.5 109.5t109.5 45.5zM255 273q64 0 109 -45.5t45 -109.5q0 -50 -129 -314h-93q138 282 138 314
q0 29 -20.5 50t-49.5 21t-50 -21t-21 -50q0 -41 38 -62l-34 -77q-40 19 -64 56.5t-24 82.5q0 64 45 109.5t110 45.5z" />
    <glyph glyph-name="ellipsis" unicode="&#x2026;" horiz-adv-x="1593" 
d="M265 293q69 0 117.5 -48.5t48.5 -116.5q0 -49 -25.5 -88.5t-67.5 -60.5l-37 75q46 22 46 74q0 34 -24 57.5t-58 23.5t-57.5 -23.5t-23.5 -57.5q0 -51 45 -74l-37 -75q-41 21 -66.5 60.5t-25.5 88.5q0 68 48.5 116.5t116.5 48.5zM796 293q69 0 117.5 -48.5t48.5 -116.5
q0 -49 -25.5 -88.5t-67.5 -60.5l-37 75q46 22 46 74q0 34 -24 57.5t-58 23.5t-57.5 -23.5t-23.5 -57.5q0 -51 45 -74l-37 -75q-41 21 -66.5 60.5t-25.5 88.5q0 68 48.5 116.5t116.5 48.5zM1327 293q69 0 117.5 -48.5t48.5 -116.5q0 -49 -25.5 -88.5t-67.5 -60.5l-37 75
q46 22 46 74q0 34 -24 57.5t-58 23.5t-57.5 -23.5t-23.5 -57.5q0 -51 45 -74l-37 -75q-41 21 -66.5 60.5t-25.5 88.5q0 68 48.5 116.5t116.5 48.5z" />
    <glyph glyph-name="Euro" unicode="&#x20ac;" horiz-adv-x="1380" 
d="M1199 350l106 -268q-118 -53 -214.5 -78t-232.5 -25q-221 0 -378 122.5t-227 329.5h-178v84h241q53 -206 193 -329t349 -123q180 0 339 64l-44 110q-148 -60 -287 -60q-156 0 -264.5 93t-153.5 245h324l40 90h-737v252h851l40 90h-527q42 163 148.5 269t261.5 106
q149 0 267 -56l50 109q-76 34 -148.5 47.5t-174.5 13.5q-108 0 -200 -39t-157.5 -107t-110 -155t-66.5 -188h-234v84h169q31 103 84 190.5t127.5 155t174 105.5t213.5 38q134 0 228 -23t205 -82l-119 -263q-66 34 -98.5 48.5t-87 26t-122.5 11.5q-97 0 -171.5 -56
t-119.5 -151h538l-116 -258h-821v-84h783l-116 -258h-251q41 -76 117 -123t174 -47q149 0 333 89z" />
    <glyph glyph-name="rub" unicode="&#x20bd;" horiz-adv-x="1486" 
d="M817 672q195 0 302.5 97.5t107.5 278.5q0 179 -113 272.5t-335 93.5h-414v-628h-156v-114h156v-281h-156v-97h156v-210h126v210h536v97h-536v479h303q124 0 173.5 43t49.5 135q0 95 -52.5 131.5t-157.5 36.5h-232v-232h-84v316h316q294 0 294 -252q0 -262 -307 -262h-219
v-311h536v-265h-536v-210h-294v210h-156v265h156v113h-156v282h156v628h498q138 0 242 -34t166.5 -96t93 -142t30.5 -178q0 -215 -131 -337.5t-363 -122.5h-116v84h116z" />
    <glyph glyph-name="uni2116" unicode="&#x2116;" horiz-adv-x="2606" 
d="M1100 518v980h294v-1498h-325l-785 1331v-1247h126v791l84 -143v-732h-294v1498h83l834 -1414h193v1330h-126v-1205l-759 1289h97zM1608 334v84h798v-272h-798v84h714v104h-714zM1881 588q-133 36 -211.5 142t-78.5 259q0 189 116 303.5t300 114.5t300 -114.5t116 -303.5
t-116 -303t-300 -114q-28 0 -42 1v189q-84 13 -132 73.5t-48 153.5q0 105 60.5 168t161.5 63t161.5 -63t60.5 -168q0 -135 -96 -196v126q12 30 12 70q0 70 -35.5 108.5t-102.5 38.5t-102.5 -38.5t-35.5 -108.5t35 -108t103 -38q25 0 42 4v-189q133 13 211.5 102t78.5 229
q0 152 -90.5 243t-241.5 91t-241.5 -91t-90.5 -243q0 -116 54.5 -198t151.5 -115v-88z" />
    <glyph glyph-name="trademark" unicode="&#x2122;" horiz-adv-x="1082" 
d="M100 1414v84h317v-84h-112v-389h-93v389h-112zM839 1498h93v-473h-92v309l-109 -195h-60l-109 195v-309h-93v473h94l138 -243z" />
    <glyph glyph-name="minus" unicode="&#x2212;" horiz-adv-x="1098" 
d="M150 801v84h798v-271h-798v84h714v103h-714z" />
    <glyph glyph-name="figure" horiz-adv-x="1517" 
d="M150 878h1217v-258h-1217v84h1133v90h-1133v84z" />
    </font>
</defs>
</svg>
