<?xml version="1.0" encoding="utf-8"?>
<!-- Generator: Adobe Illustrator 22.0.1, SVG Export Plug-In . SVG Version: 6.00 Build 0)  -->
<svg class="logo" version="1.1" xmlns="http://www.w3.org/2000/svg" xmlns:xlink="http://www.w3.org/1999/xlink" x="0px" y="0px"
	 viewBox="0 0 555.6 475.2" style="enable-background:new 0 0 555.6 475.2;" xml:space="preserve">
<g>
	<polygon points="351.8,52.5 351.8,52.5 351.8,52.5 350.9,55.5 	"/>
	<path d="M80.7,373.7V106.3c0-11.5,10.3-20.3,21.6-18.6L314,119.6l20.5-70.1L63.3,0.9C60.1,0.3,56.9,0,53.7,0C24.7,0,0,23.6,0,53.8
		v354.1c0,37.5,30.6,67.3,67.2,67.3c2.5,0,5.1-0.1,7.7-0.4L215,458.8l23.6-81l-137.8,14.6C90,393.2,80.7,384.6,80.7,373.7z"/>
	<path d="M511.3,81.1L483,76.1v73.8v188.5c0,9.6-7.2,17.6-16.7,18.7l-117.9,10.5l80.1-301.2l-76.8-13.8L235,456.5L496,426.8
		c34-3.9,59.7-32.6,59.7-66.8V134.1C555.6,108,537,85.7,511.3,81.1z"/>
</g>
</svg>
